<?xml version="1.0" encoding="UTF-8" standalone="no"?>
<!DOCTYPE svg PUBLIC "-//W3C//DTD SVG 1.1//EN"
 "http://www.w3.org/Graphics/SVG/1.1/DTD/svg11.dtd">
<!-- Generated by graphviz version 2.26.0 (20091210.2329)
 -->
<!-- Title: G Pages: 1 -->
<svg width="950pt" height="746pt"
 viewBox="0.00 0.00 950.00 746.00" xmlns="http://www.w3.org/2000/svg" xmlns:xlink="http://www.w3.org/1999/xlink">
<g id="graph1" class="graph" transform="scale(1 1) rotate(0) translate(4 742)">
<title>G</title>
<polygon fill="white" stroke="white" points="-4,5 -4,-742 947,-742 947,5 -4,5"/>
<!-- http://bio.glyconavi.org/GlycoSample/GS_40 -->
<g id="node1" class="node"><title>http://bio.glyconavi.org/GlycoSample/GS_40</title>
<a xlink:href="http://www.kanzaki.com/works/2009/pub/graph-draw?u=http%3A%2F%2Fbio.glyconavi.org%2FGlycoSample%2FGS_40" xlink:title="http://bio.glyconavi.org/GlycoSample/GS_40">
<ellipse fill="#b7ffaf" stroke="#b7ffaf" cx="130" cy="-481" rx="128.774" ry="18"/>
<text text-anchor="middle" x="130" y="-478.5" font-family="gothic" font-size="10.00">http://bio.glyconavi.org/GlycoSample/GS_40</text>
</a>
</g>
<!-- http://purl.jp/bio/12/glyco/sample#Sample -->
<g id="node2" class="node"><title>http://purl.jp/bio/12/glyco/sample#Sample</title>
<a xlink:href="http://www.kanzaki.com/works/2009/pub/graph-draw?u=http%3A%2F%2Fpurl.jp%2Fbio%2F12%2Fglyco%2Fsample%23Sample" xlink:title="gs:Sample">
<ellipse fill="#b7ffaf" stroke="#b7ffaf" cx="456" cy="-720" rx="38.782" ry="18"/>
<text text-anchor="middle" x="456" y="-717.5" font-family="gothic" font-size="10.00">gs:Sample</text>
</a>
</g>
<!-- http://bio.glyconavi.org/GlycoSample/GS_40&#45;&gt;http://purl.jp/bio/12/glyco/sample#Sample -->
<g id="edge2" class="edge"><title>http://bio.glyconavi.org/GlycoSample/GS_40&#45;&gt;http://purl.jp/bio/12/glyco/sample#Sample</title>
<a xlink:href=" javascript:onclick=function(e){var f=e.target.style;f.stroke=f.stroke==&#39;&#39;?&#39;red&#39;:&#39;&#39;}" xlink:title="rdf:type">
<path fill="none" stroke="black" d="M142.01,-499.172C164.91,-532.617 217.924,-604.473 278,-648 318.887,-677.624 373.703,-697.398 411.652,-708.607"/>
<polygon fill="black" stroke="black" points="410.822,-712.01 421.399,-711.408 412.755,-705.282 410.822,-712.01"/>
</a>
<a xlink:href=" javascript:onclick=function(e){var f=e.target.style;f.stroke=f.stroke==&#39;&#39;?&#39;red&#39;:&#39;&#39;}" xlink:title="rdf:type">
<text text-anchor="middle" x="321" y="-695" font-family="gothic" font-size="10.00">rdf:type</text>
</a>
</g>
<!-- literal_3404938432 -->
<g id="node3" class="node"><title>literal_3404938432</title>
<polygon fill="#ffe666" stroke="#ffe666" points="492,-684 420,-684 420,-648 492,-648 492,-684"/>
<text text-anchor="middle" x="456" y="-663.5" font-family="gothic" font-size="10.00">GS_40</text>
</g>
<!-- http://bio.glyconavi.org/GlycoSample/GS_40&#45;&gt;literal_3404938432 -->
<g id="edge4" class="edge"><title>http://bio.glyconavi.org/GlycoSample/GS_40&#45;&gt;literal_3404938432</title>
<a xlink:href=" javascript:onclick=function(e){var f=e.target.style;f.stroke=f.stroke==&#39;&#39;?&#39;red&#39;:&#39;&#39;}" xlink:title="dcterms:title">
<path fill="none" stroke="black" d="M148.71,-499.092C175.517,-524.237 227.242,-569.929 278,-599 320.974,-623.613 335.626,-621.623 382,-639 391.124,-642.419 400.902,-646.026 410.262,-649.452"/>
<polygon fill="black" stroke="black" points="409.227,-652.8 419.821,-652.941 411.627,-646.225 409.227,-652.8"/>
</a>
<a xlink:href=" javascript:onclick=function(e){var f=e.target.style;f.stroke=f.stroke==&#39;&#39;?&#39;red&#39;:&#39;&#39;}" xlink:title="dcterms:title">
<text text-anchor="middle" x="321" y="-635" font-family="gothic" font-size="10.00">dcterms:title</text>
</a>
</g>
<!-- literal_4229502476 -->
<g id="node4" class="node"><title>literal_4229502476</title>
<polygon fill="#ffe666" stroke="#ffe666" points="530,-630 382,-630 382,-594 530,-594 530,-630"/>
<text text-anchor="middle" x="456" y="-609.5" font-family="gothic" font-size="10.00">Py&#45;BHK cells derived from &#160;...</text>
</g>
<!-- http://bio.glyconavi.org/GlycoSample/GS_40&#45;&gt;literal_4229502476 -->
<g id="edge6" class="edge"><title>http://bio.glyconavi.org/GlycoSample/GS_40&#45;&gt;literal_4229502476</title>
<a xlink:href=" javascript:onclick=function(e){var f=e.target.style;f.stroke=f.stroke==&#39;&#39;?&#39;red&#39;:&#39;&#39;}" xlink:title="dcterms:description">
<path fill="none" stroke="black" d="M163.272,-498.405C192.928,-513.568 237.741,-535.63 278,-552 313.331,-566.367 353.531,-580.129 386.778,-590.841"/>
<polygon fill="black" stroke="black" points="385.818,-594.209 396.409,-593.922 387.95,-587.542 385.818,-594.209"/>
</a>
<a xlink:href=" javascript:onclick=function(e){var f=e.target.style;f.stroke=f.stroke==&#39;&#39;?&#39;red&#39;:&#39;&#39;}" xlink:title="dcterms:description">
<text text-anchor="middle" x="321" y="-586" font-family="gothic" font-size="10.00">dcterms:description</text>
</a>
</g>
<!-- literal_2395203298 -->
<g id="node5" class="node"><title>literal_2395203298</title>
<polygon fill="#ffe666" stroke="#ffe666" points="492,-576 420,-576 420,-540 492,-540 492,-576"/>
<text text-anchor="middle" x="456" y="-555.5" font-family="gothic" font-size="10.00">GS_40</text>
</g>
<!-- http://bio.glyconavi.org/GlycoSample/GS_40&#45;&gt;literal_2395203298 -->
<g id="edge8" class="edge"><title>http://bio.glyconavi.org/GlycoSample/GS_40&#45;&gt;literal_2395203298</title>
<a xlink:href=" javascript:onclick=function(e){var f=e.target.style;f.stroke=f.stroke==&#39;&#39;?&#39;red&#39;:&#39;&#39;}" xlink:title="dcterms:identifier">
<path fill="none" stroke="black" d="M195.971,-496.582C259.55,-511.599 354.096,-533.931 409.948,-547.123"/>
<polygon fill="black" stroke="black" points="409.374,-550.583 419.911,-549.476 410.983,-543.771 409.374,-550.583"/>
</a>
<a xlink:href=" javascript:onclick=function(e){var f=e.target.style;f.stroke=f.stroke==&#39;&#39;?&#39;red&#39;:&#39;&#39;}" xlink:title="dcterms:identifier">
<text text-anchor="middle" x="321" y="-539" font-family="gothic" font-size="10.00">dcterms:identifier</text>
</a>
</g>
<!-- literal_3605237845 -->
<g id="node6" class="node"><title>literal_3605237845</title>
<polygon fill="#ffe666" stroke="#ffe666" points="492,-522 420,-522 420,-486 492,-486 492,-522"/>
<text text-anchor="middle" x="456" y="-501.5" font-family="gothic" font-size="10.00">2017&#45;09&#45;13</text>
</g>
<!-- http://bio.glyconavi.org/GlycoSample/GS_40&#45;&gt;literal_3605237845 -->
<g id="edge10" class="edge"><title>http://bio.glyconavi.org/GlycoSample/GS_40&#45;&gt;literal_3605237845</title>
<a xlink:href=" javascript:onclick=function(e){var f=e.target.style;f.stroke=f.stroke==&#39;&#39;?&#39;red&#39;:&#39;&#39;}" xlink:title="dcterms:modified">
<path fill="none" stroke="black" d="M245.853,-489.174C302.323,-493.158 367.053,-497.725 409.577,-500.725"/>
<polygon fill="black" stroke="black" points="409.405,-504.221 419.626,-501.434 409.897,-497.239 409.405,-504.221"/>
</a>
<a xlink:href=" javascript:onclick=function(e){var f=e.target.style;f.stroke=f.stroke==&#39;&#39;?&#39;red&#39;:&#39;&#39;}" xlink:title="dcterms:modified">
<text text-anchor="middle" x="321" y="-501" font-family="gothic" font-size="10.00">dcterms:modified</text>
</a>
</g>
<!-- _:arcf086b1 -->
<g id="node7" class="node"><title>_:arcf086b1</title>
<ellipse fill="#cce6dd" stroke="#cce6dd" cx="456" cy="-450" rx="36" ry="18"/>
</g>
<!-- http://bio.glyconavi.org/GlycoSample/GS_40&#45;&gt;_:arcf086b1 -->
<g id="edge12" class="edge"><title>http://bio.glyconavi.org/GlycoSample/GS_40&#45;&gt;_:arcf086b1</title>
<a xlink:href=" javascript:onclick=function(e){var f=e.target.style;f.stroke=f.stroke==&#39;&#39;?&#39;red&#39;:&#39;&#39;}" xlink:title="obo:NCIT_C25447">
<path fill="none" stroke="black" d="M237.196,-470.807C295.905,-465.224 365.599,-458.596 410.289,-454.347"/>
<polygon fill="black" stroke="black" points="410.636,-457.83 420.26,-453.399 409.973,-450.861 410.636,-457.83"/>
</a>
<a xlink:href=" javascript:onclick=function(e){var f=e.target.style;f.stroke=f.stroke==&#39;&#39;?&#39;red&#39;:&#39;&#39;}" xlink:title="obo:NCIT_C25447">
<text text-anchor="middle" x="321" y="-470" font-family="gothic" font-size="10.00">obo:NCIT_C25447</text>
</a>
</g>
<!-- _:arcf086b4 -->
<g id="node8" class="node"><title>_:arcf086b4</title>
<ellipse fill="#cce6dd" stroke="#cce6dd" cx="456" cy="-396" rx="36" ry="18"/>
</g>
<!-- http://bio.glyconavi.org/GlycoSample/GS_40&#45;&gt;_:arcf086b4 -->
<g id="edge14" class="edge"><title>http://bio.glyconavi.org/GlycoSample/GS_40&#45;&gt;_:arcf086b4</title>
<a xlink:href=" javascript:onclick=function(e){var f=e.target.style;f.stroke=f.stroke==&#39;&#39;?&#39;red&#39;:&#39;&#39;}" xlink:title="obo:NCIT_C25447">
<path fill="none" stroke="black" d="M190.469,-464.996C217.277,-457.919 249.204,-449.515 278,-442 324.579,-429.844 378.056,-416.045 414.137,-406.759"/>
<polygon fill="black" stroke="black" points="415.02,-410.146 423.832,-404.264 413.275,-403.366 415.02,-410.146"/>
</a>
<a xlink:href=" javascript:onclick=function(e){var f=e.target.style;f.stroke=f.stroke==&#39;&#39;?&#39;red&#39;:&#39;&#39;}" xlink:title="obo:NCIT_C25447">
<text text-anchor="middle" x="321" y="-446" font-family="gothic" font-size="10.00">obo:NCIT_C25447</text>
</a>
</g>
<!-- _:arcf086b7 -->
<g id="node9" class="node"><title>_:arcf086b7</title>
<ellipse fill="#cce6dd" stroke="#cce6dd" cx="456" cy="-315" rx="36" ry="18"/>
</g>
<!-- http://bio.glyconavi.org/GlycoSample/GS_40&#45;&gt;_:arcf086b7 -->
<g id="edge16" class="edge"><title>http://bio.glyconavi.org/GlycoSample/GS_40&#45;&gt;_:arcf086b7</title>
<a xlink:href=" javascript:onclick=function(e){var f=e.target.style;f.stroke=f.stroke==&#39;&#39;?&#39;red&#39;:&#39;&#39;}" xlink:title="obo:NCIT_C25447">
<path fill="none" stroke="black" d="M162.5,-463.562C192.402,-447.592 238.035,-423.406 278,-403 327.322,-377.816 384.836,-349.587 420.838,-332.05"/>
<polygon fill="black" stroke="black" points="422.493,-335.138 429.953,-327.615 419.43,-328.843 422.493,-335.138"/>
</a>
<a xlink:href=" javascript:onclick=function(e){var f=e.target.style;f.stroke=f.stroke==&#39;&#39;?&#39;red&#39;:&#39;&#39;}" xlink:title="obo:NCIT_C25447">
<text text-anchor="middle" x="321" y="-407" font-family="gothic" font-size="10.00">obo:NCIT_C25447</text>
</a>
</g>
<!-- _:arcf086b10 -->
<g id="node10" class="node"><title>_:arcf086b10</title>
<ellipse fill="#cce6dd" stroke="#cce6dd" cx="456" cy="-180" rx="36" ry="18"/>
</g>
<!-- http://bio.glyconavi.org/GlycoSample/GS_40&#45;&gt;_:arcf086b10 -->
<g id="edge18" class="edge"><title>http://bio.glyconavi.org/GlycoSample/GS_40&#45;&gt;_:arcf086b10</title>
<a xlink:href=" javascript:onclick=function(e){var f=e.target.style;f.stroke=f.stroke==&#39;&#39;?&#39;red&#39;:&#39;&#39;}" xlink:title="obo:NCIT_C25447">
<path fill="none" stroke="black" d="M149.617,-462.814C177.944,-436.559 231.957,-386.521 278,-344 332.585,-293.59 396.687,-234.575 431.116,-202.893"/>
<polygon fill="black" stroke="black" points="433.816,-205.165 438.805,-195.818 429.076,-200.014 433.816,-205.165"/>
</a>
<a xlink:href=" javascript:onclick=function(e){var f=e.target.style;f.stroke=f.stroke==&#39;&#39;?&#39;red&#39;:&#39;&#39;}" xlink:title="obo:NCIT_C25447">
<text text-anchor="middle" x="321" y="-348" font-family="gothic" font-size="10.00">obo:NCIT_C25447</text>
</a>
</g>
<!-- _:arcf086b13 -->
<g id="node11" class="node"><title>_:arcf086b13</title>
<ellipse fill="#cce6dd" stroke="#cce6dd" cx="456" cy="-72" rx="36" ry="18"/>
</g>
<!-- http://bio.glyconavi.org/GlycoSample/GS_40&#45;&gt;_:arcf086b13 -->
<g id="edge20" class="edge"><title>http://bio.glyconavi.org/GlycoSample/GS_40&#45;&gt;_:arcf086b13</title>
<a xlink:href=" javascript:onclick=function(e){var f=e.target.style;f.stroke=f.stroke==&#39;&#39;?&#39;red&#39;:&#39;&#39;}" xlink:title="obo:NCIT_C25447">
<path fill="none" stroke="black" d="M139.74,-463.028C161.824,-422.964 218.429,-324.028 278,-250 326.779,-189.382 393.801,-126.988 430.1,-94.6059"/>
<polygon fill="black" stroke="black" points="432.629,-97.0415 437.788,-87.7874 427.984,-91.8046 432.629,-97.0415"/>
</a>
<a xlink:href=" javascript:onclick=function(e){var f=e.target.style;f.stroke=f.stroke==&#39;&#39;?&#39;red&#39;:&#39;&#39;}" xlink:title="obo:NCIT_C25447">
<text text-anchor="middle" x="321" y="-254" font-family="gothic" font-size="10.00">obo:NCIT_C25447</text>
</a>
</g>
<!-- _:arcf086b2 -->
<g id="node12" class="node"><title>_:arcf086b2</title>
<ellipse fill="#cce6dd" stroke="#cce6dd" cx="674" cy="-612" rx="36" ry="18"/>
</g>
<!-- _:arcf086b1&#45;&gt;_:arcf086b2 -->
<g id="edge22" class="edge"><title>_:arcf086b1&#45;&gt;_:arcf086b2</title>
<a xlink:href=" javascript:onclick=function(e){var f=e.target.style;f.stroke=f.stroke==&#39;&#39;?&#39;red&#39;:&#39;&#39;}" xlink:title="rdf:propertyType">
<path fill="none" stroke="black" d="M490.092,-456.239C503.875,-460.22 519.074,-466.66 530,-477 544.75,-490.96 535.39,-503.081 548,-519 573.254,-550.881 612.017,-577.258 639.878,-593.678"/>
<polygon fill="black" stroke="black" points="638.461,-596.901 648.873,-598.858 641.954,-590.835 638.461,-596.901"/>
</a>
<a xlink:href=" javascript:onclick=function(e){var f=e.target.style;f.stroke=f.stroke==&#39;&#39;?&#39;red&#39;:&#39;&#39;}" xlink:title="rdf:propertyType">
<text text-anchor="middle" x="584" y="-583" font-family="gothic" font-size="10.00">rdf:propertyType</text>
</a>
</g>
<!-- _:arcf086b3 -->
<g id="node13" class="node"><title>_:arcf086b3</title>
<ellipse fill="#cce6dd" stroke="#cce6dd" cx="674" cy="-504" rx="36" ry="18"/>
</g>
<!-- _:arcf086b1&#45;&gt;_:arcf086b3 -->
<g id="edge24" class="edge"><title>_:arcf086b1&#45;&gt;_:arcf086b3</title>
<a xlink:href=" javascript:onclick=function(e){var f=e.target.style;f.stroke=f.stroke==&#39;&#39;?&#39;red&#39;:&#39;&#39;}" xlink:title="rdf:property\nValue">
<path fill="none" stroke="black" d="M488.637,-458.084C526.713,-467.516 589.775,-483.137 631.608,-493.499"/>
<polygon fill="black" stroke="black" points="630.948,-496.942 641.497,-495.949 632.632,-490.147 630.948,-496.942"/>
</a>
<a xlink:href=" javascript:onclick=function(e){var f=e.target.style;f.stroke=f.stroke==&#39;&#39;?&#39;red&#39;:&#39;&#39;}" xlink:title="rdf:property\nValue">
<text text-anchor="middle" x="584" y="-506" font-family="gothic" font-size="10.00">rdf:property</text>
<text text-anchor="middle" x="584" y="-493" font-family="gothic" font-size="10.00">Value</text>
</a>
</g>
<!-- _:arcf086b5 -->
<g id="node18" class="node"><title>_:arcf086b5</title>
<ellipse fill="#cce6dd" stroke="#cce6dd" cx="674" cy="-450" rx="36" ry="18"/>
</g>
<!-- _:arcf086b4&#45;&gt;_:arcf086b5 -->
<g id="edge34" class="edge"><title>_:arcf086b4&#45;&gt;_:arcf086b5</title>
<a xlink:href=" javascript:onclick=function(e){var f=e.target.style;f.stroke=f.stroke==&#39;&#39;?&#39;red&#39;:&#39;&#39;}" xlink:title="rdf:propertyType">
<path fill="none" stroke="black" d="M486.009,-406.374C503.874,-412.32 527.071,-419.642 548,-425 574.938,-431.896 605.526,-438.005 629.818,-442.458"/>
<polygon fill="black" stroke="black" points="629.352,-445.93 639.814,-444.263 630.595,-439.042 629.352,-445.93"/>
</a>
<a xlink:href=" javascript:onclick=function(e){var f=e.target.style;f.stroke=f.stroke==&#39;&#39;?&#39;red&#39;:&#39;&#39;}" xlink:title="rdf:propertyType">
<text text-anchor="middle" x="584" y="-444" font-family="gothic" font-size="10.00">rdf:propertyType</text>
</a>
</g>
<!-- _:arcf086b6 -->
<g id="node19" class="node"><title>_:arcf086b6</title>
<ellipse fill="#cce6dd" stroke="#cce6dd" cx="674" cy="-396" rx="36" ry="18"/>
</g>
<!-- _:arcf086b4&#45;&gt;_:arcf086b6 -->
<g id="edge36" class="edge"><title>_:arcf086b4&#45;&gt;_:arcf086b6</title>
<a xlink:href=" javascript:onclick=function(e){var f=e.target.style;f.stroke=f.stroke==&#39;&#39;?&#39;red&#39;:&#39;&#39;}" xlink:title="rdf:property\nValue">
<path fill="none" stroke="black" d="M492.488,-396C529.619,-396 587.295,-396 627.639,-396"/>
<polygon fill="black" stroke="black" points="627.756,-399.5 637.756,-396 627.756,-392.5 627.756,-399.5"/>
</a>
<a xlink:href=" javascript:onclick=function(e){var f=e.target.style;f.stroke=f.stroke==&#39;&#39;?&#39;red&#39;:&#39;&#39;}" xlink:title="rdf:property\nValue">
<text text-anchor="middle" x="584" y="-413" font-family="gothic" font-size="10.00">rdf:property</text>
<text text-anchor="middle" x="584" y="-400" font-family="gothic" font-size="10.00">Value</text>
</a>
</g>
<!-- _:arcf086b8 -->
<g id="node22" class="node"><title>_:arcf086b8</title>
<ellipse fill="#cce6dd" stroke="#cce6dd" cx="674" cy="-315" rx="36" ry="18"/>
</g>
<!-- _:arcf086b7&#45;&gt;_:arcf086b8 -->
<g id="edge42" class="edge"><title>_:arcf086b7&#45;&gt;_:arcf086b8</title>
<a xlink:href=" javascript:onclick=function(e){var f=e.target.style;f.stroke=f.stroke==&#39;&#39;?&#39;red&#39;:&#39;&#39;}" xlink:title="rdf:propertyType">
<path fill="none" stroke="black" d="M492.488,-315C529.619,-315 587.295,-315 627.639,-315"/>
<polygon fill="black" stroke="black" points="627.756,-318.5 637.756,-315 627.756,-311.5 627.756,-318.5"/>
</a>
<a xlink:href=" javascript:onclick=function(e){var f=e.target.style;f.stroke=f.stroke==&#39;&#39;?&#39;red&#39;:&#39;&#39;}" xlink:title="rdf:propertyType">
<text text-anchor="middle" x="584" y="-319" font-family="gothic" font-size="10.00">rdf:propertyType</text>
</a>
</g>
<!-- _:arcf086b9 -->
<g id="node23" class="node"><title>_:arcf086b9</title>
<ellipse fill="#cce6dd" stroke="#cce6dd" cx="674" cy="-248" rx="36" ry="18"/>
</g>
<!-- _:arcf086b7&#45;&gt;_:arcf086b9 -->
<g id="edge44" class="edge"><title>_:arcf086b7&#45;&gt;_:arcf086b9</title>
<a xlink:href=" javascript:onclick=function(e){var f=e.target.style;f.stroke=f.stroke==&#39;&#39;?&#39;red&#39;:&#39;&#39;}" xlink:title="rdf:property\nValue">
<path fill="none" stroke="black" d="M486.177,-304.911C504.1,-298.981 527.299,-291.413 548,-285 576.232,-276.254 608.182,-266.877 632.845,-259.752"/>
<polygon fill="black" stroke="black" points="633.955,-263.075 642.595,-256.943 632.017,-256.348 633.955,-263.075"/>
</a>
<a xlink:href=" javascript:onclick=function(e){var f=e.target.style;f.stroke=f.stroke==&#39;&#39;?&#39;red&#39;:&#39;&#39;}" xlink:title="rdf:property\nValue">
<text text-anchor="middle" x="584" y="-302" font-family="gothic" font-size="10.00">rdf:property</text>
<text text-anchor="middle" x="584" y="-289" font-family="gothic" font-size="10.00">Value</text>
</a>
</g>
<!-- _:arcf086b11 -->
<g id="node27" class="node"><title>_:arcf086b11</title>
<ellipse fill="#cce6dd" stroke="#cce6dd" cx="674" cy="-180" rx="36" ry="18"/>
</g>
<!-- _:arcf086b10&#45;&gt;_:arcf086b11 -->
<g id="edge52" class="edge"><title>_:arcf086b10&#45;&gt;_:arcf086b11</title>
<a xlink:href=" javascript:onclick=function(e){var f=e.target.style;f.stroke=f.stroke==&#39;&#39;?&#39;red&#39;:&#39;&#39;}" xlink:title="rdf:propertyType">
<path fill="none" stroke="black" d="M492.488,-180C529.619,-180 587.295,-180 627.639,-180"/>
<polygon fill="black" stroke="black" points="627.756,-183.5 637.756,-180 627.756,-176.5 627.756,-183.5"/>
</a>
<a xlink:href=" javascript:onclick=function(e){var f=e.target.style;f.stroke=f.stroke==&#39;&#39;?&#39;red&#39;:&#39;&#39;}" xlink:title="rdf:propertyType">
<text text-anchor="middle" x="584" y="-184" font-family="gothic" font-size="10.00">rdf:propertyType</text>
</a>
</g>
<!-- _:arcf086b12 -->
<g id="node28" class="node"><title>_:arcf086b12</title>
<ellipse fill="#cce6dd" stroke="#cce6dd" cx="674" cy="-126" rx="36" ry="18"/>
</g>
<!-- _:arcf086b10&#45;&gt;_:arcf086b12 -->
<g id="edge54" class="edge"><title>_:arcf086b10&#45;&gt;_:arcf086b12</title>
<a xlink:href=" javascript:onclick=function(e){var f=e.target.style;f.stroke=f.stroke==&#39;&#39;?&#39;red&#39;:&#39;&#39;}" xlink:title="rdf:property\nValue">
<path fill="none" stroke="black" d="M485.55,-169.305C503.454,-163.091 526.848,-155.44 548,-150 574.796,-143.109 605.263,-137.253 629.524,-133.051"/>
<polygon fill="black" stroke="black" points="630.241,-136.48 639.514,-131.354 629.068,-129.579 630.241,-136.48"/>
</a>
<a xlink:href=" javascript:onclick=function(e){var f=e.target.style;f.stroke=f.stroke==&#39;&#39;?&#39;red&#39;:&#39;&#39;}" xlink:title="rdf:property\nValue">
<text text-anchor="middle" x="584" y="-167" font-family="gothic" font-size="10.00">rdf:property</text>
<text text-anchor="middle" x="584" y="-154" font-family="gothic" font-size="10.00">Value</text>
</a>
</g>
<!-- _:arcf086b14 -->
<g id="node31" class="node"><title>_:arcf086b14</title>
<ellipse fill="#cce6dd" stroke="#cce6dd" cx="674" cy="-72" rx="36" ry="18"/>
</g>
<!-- _:arcf086b13&#45;&gt;_:arcf086b14 -->
<g id="edge60" class="edge"><title>_:arcf086b13&#45;&gt;_:arcf086b14</title>
<a xlink:href=" javascript:onclick=function(e){var f=e.target.style;f.stroke=f.stroke==&#39;&#39;?&#39;red&#39;:&#39;&#39;}" xlink:title="rdf:propertyType">
<path fill="none" stroke="black" d="M492.488,-72C529.619,-72 587.295,-72 627.639,-72"/>
<polygon fill="black" stroke="black" points="627.756,-75.5001 637.756,-72 627.756,-68.5001 627.756,-75.5001"/>
</a>
<a xlink:href=" javascript:onclick=function(e){var f=e.target.style;f.stroke=f.stroke==&#39;&#39;?&#39;red&#39;:&#39;&#39;}" xlink:title="rdf:propertyType">
<text text-anchor="middle" x="584" y="-76" font-family="gothic" font-size="10.00">rdf:propertyType</text>
</a>
</g>
<!-- _:arcf086b15 -->
<g id="node32" class="node"><title>_:arcf086b15</title>
<ellipse fill="#cce6dd" stroke="#cce6dd" cx="674" cy="-18" rx="36" ry="18"/>
</g>
<!-- _:arcf086b13&#45;&gt;_:arcf086b15 -->
<g id="edge62" class="edge"><title>_:arcf086b13&#45;&gt;_:arcf086b15</title>
<a xlink:href=" javascript:onclick=function(e){var f=e.target.style;f.stroke=f.stroke==&#39;&#39;?&#39;red&#39;:&#39;&#39;}" xlink:title="rdf:property\nValue">
<path fill="none" stroke="black" d="M485.55,-61.3048C503.454,-55.0908 526.848,-47.4396 548,-42 574.796,-35.1087 605.263,-29.2532 629.524,-25.0514"/>
<polygon fill="black" stroke="black" points="630.241,-28.4799 639.514,-23.3537 629.068,-21.5788 630.241,-28.4799"/>
</a>
<a xlink:href=" javascript:onclick=function(e){var f=e.target.style;f.stroke=f.stroke==&#39;&#39;?&#39;red&#39;:&#39;&#39;}" xlink:title="rdf:property\nValue">
<text text-anchor="middle" x="584" y="-59" font-family="gothic" font-size="10.00">rdf:property</text>
<text text-anchor="middle" x="584" y="-46" font-family="gothic" font-size="10.00">Value</text>
</a>
</g>
<!-- literal_3809320164 -->
<g id="node14" class="node"><title>literal_3809320164</title>
<polygon fill="#ffe666" stroke="#ffe666" points="900,-684 828,-684 828,-648 900,-648 900,-684"/>
<text text-anchor="middle" x="864" y="-663.5" font-family="gothic" font-size="10.00">organism</text>
</g>
<!-- _:arcf086b2&#45;&gt;literal_3809320164 -->
<g id="edge26" class="edge"><title>_:arcf086b2&#45;&gt;literal_3809320164</title>
<a xlink:href=" javascript:onclick=function(e){var f=e.target.style;f.stroke=f.stroke==&#39;&#39;?&#39;red&#39;:&#39;&#39;}" xlink:title="rdfs:label">
<path fill="none" stroke="black" d="M704.493,-621.83C712.15,-624.235 720.361,-626.759 728,-629 757.877,-637.763 791.653,-646.956 818.071,-653.986"/>
<polygon fill="black" stroke="black" points="817.249,-657.389 827.812,-656.57 819.043,-650.623 817.249,-657.389"/>
</a>
<a xlink:href=" javascript:onclick=function(e){var f=e.target.style;f.stroke=f.stroke==&#39;&#39;?&#39;red&#39;:&#39;&#39;}" xlink:title="rdfs:label">
<text text-anchor="middle" x="748" y="-643" font-family="gothic" font-size="10.00">rdfs:label</text>
</a>
</g>
<!-- http://purl.obolibrary.org/obo/UBERON_0000468 -->
<g id="node15" class="node"><title>http://purl.obolibrary.org/obo/UBERON_0000468</title>
<a xlink:href="http://www.kanzaki.com/works/2009/pub/graph-draw?u=http%3A%2F%2Fpurl.obolibrary.org%2Fobo%2FUBERON_0000468" xlink:title="obo:UBERON_0000468">
<ellipse fill="#b7ffaf" stroke="#b7ffaf" cx="864" cy="-612" rx="73.9861" ry="18"/>
<text text-anchor="middle" x="864" y="-609.5" font-family="gothic" font-size="10.00">obo:UBERON_0000468</text>
</a>
</g>
<!-- _:arcf086b2&#45;&gt;http://purl.obolibrary.org/obo/UBERON_0000468 -->
<g id="edge28" class="edge"><title>_:arcf086b2&#45;&gt;http://purl.obolibrary.org/obo/UBERON_0000468</title>
<a xlink:href=" javascript:onclick=function(e){var f=e.target.style;f.stroke=f.stroke==&#39;&#39;?&#39;red&#39;:&#39;&#39;}" xlink:title="rdf:type">
<path fill="none" stroke="black" d="M710.185,-612C729.781,-612 754.881,-612 779.096,-612"/>
<polygon fill="black" stroke="black" points="779.401,-615.5 789.401,-612 779.401,-608.5 779.401,-615.5"/>
</a>
<a xlink:href=" javascript:onclick=function(e){var f=e.target.style;f.stroke=f.stroke==&#39;&#39;?&#39;red&#39;:&#39;&#39;}" xlink:title="rdf:type">
<text text-anchor="middle" x="748" y="-616" font-family="gothic" font-size="10.00">rdf:type</text>
</a>
</g>
<!-- literal_3750366976 -->
<g id="node16" class="node"><title>literal_3750366976</title>
<polygon fill="#ffe666" stroke="#ffe666" points="900,-576 828,-576 828,-540 900,-540 900,-576"/>
<text text-anchor="middle" x="864" y="-555.5" font-family="gothic" font-size="10.00">hamster</text>
</g>
<!-- _:arcf086b3&#45;&gt;literal_3750366976 -->
<g id="edge30" class="edge"><title>_:arcf086b3&#45;&gt;literal_3750366976</title>
<a xlink:href=" javascript:onclick=function(e){var f=e.target.style;f.stroke=f.stroke==&#39;&#39;?&#39;red&#39;:&#39;&#39;}" xlink:title="rdfs:label">
<path fill="none" stroke="black" d="M704.493,-513.83C712.15,-516.235 720.361,-518.759 728,-521 757.877,-529.763 791.653,-538.956 818.071,-545.986"/>
<polygon fill="black" stroke="black" points="817.249,-549.389 827.812,-548.57 819.043,-542.623 817.249,-549.389"/>
</a>
<a xlink:href=" javascript:onclick=function(e){var f=e.target.style;f.stroke=f.stroke==&#39;&#39;?&#39;red&#39;:&#39;&#39;}" xlink:title="rdfs:label">
<text text-anchor="middle" x="748" y="-535" font-family="gothic" font-size="10.00">rdfs:label</text>
</a>
</g>
<!-- http://purl.obolibrary.org/obo/NCBITaxon_10026 -->
<g id="node17" class="node"><title>http://purl.obolibrary.org/obo/NCBITaxon_10026</title>
<a xlink:href="http://www.kanzaki.com/works/2009/pub/graph-draw?u=http%3A%2F%2Fpurl.obolibrary.org%2Fobo%2FNCBITaxon_10026" xlink:title="obo:NCBITaxon_10026">
<ellipse fill="#b7ffaf" stroke="#b7ffaf" cx="864" cy="-504" rx="72.7565" ry="18"/>
<text text-anchor="middle" x="864" y="-501.5" font-family="gothic" font-size="10.00">obo:NCBITaxon_10026</text>
</a>
</g>
<!-- _:arcf086b3&#45;&gt;http://purl.obolibrary.org/obo/NCBITaxon_10026 -->
<g id="edge32" class="edge"><title>_:arcf086b3&#45;&gt;http://purl.obolibrary.org/obo/NCBITaxon_10026</title>
<a xlink:href=" javascript:onclick=function(e){var f=e.target.style;f.stroke=f.stroke==&#39;&#39;?&#39;red&#39;:&#39;&#39;}" xlink:title="rdf:type">
<path fill="none" stroke="black" d="M710.185,-504C730.057,-504 755.591,-504 780.121,-504"/>
<polygon fill="black" stroke="black" points="780.186,-507.5 790.186,-504 780.186,-500.5 780.186,-507.5"/>
</a>
<a xlink:href=" javascript:onclick=function(e){var f=e.target.style;f.stroke=f.stroke==&#39;&#39;?&#39;red&#39;:&#39;&#39;}" xlink:title="rdf:type">
<text text-anchor="middle" x="748" y="-508" font-family="gothic" font-size="10.00">rdf:type</text>
</a>
</g>
<!-- literal_2496129316 -->
<g id="node20" class="node"><title>literal_2496129316</title>
<polygon fill="#ffe666" stroke="#ffe666" points="922,-468 806,-468 806,-432 922,-432 922,-468"/>
<text text-anchor="middle" x="864" y="-447.5" font-family="gothic" font-size="10.00">ISOLATION SOURCE</text>
</g>
<!-- _:arcf086b5&#45;&gt;literal_2496129316 -->
<g id="edge38" class="edge"><title>_:arcf086b5&#45;&gt;literal_2496129316</title>
<a xlink:href=" javascript:onclick=function(e){var f=e.target.style;f.stroke=f.stroke==&#39;&#39;?&#39;red&#39;:&#39;&#39;}" xlink:title="rdfs:label">
<path fill="none" stroke="black" d="M710.185,-450C734.36,-450 766.912,-450 795.844,-450"/>
<polygon fill="black" stroke="black" points="795.908,-453.5 805.908,-450 795.908,-446.5 795.908,-453.5"/>
</a>
<a xlink:href=" javascript:onclick=function(e){var f=e.target.style;f.stroke=f.stroke==&#39;&#39;?&#39;red&#39;:&#39;&#39;}" xlink:title="rdfs:label">
<text text-anchor="middle" x="748" y="-454" font-family="gothic" font-size="10.00">rdfs:label</text>
</a>
</g>
<!-- literal_1934074515 -->
<g id="node21" class="node"><title>literal_1934074515</title>
<polygon fill="#ffe666" stroke="#ffe666" points="935,-414 793,-414 793,-378 935,-378 935,-414"/>
<text text-anchor="middle" x="864" y="-393.5" font-family="gothic" font-size="10.00">surface of normal and tran ...</text>
</g>
<!-- _:arcf086b6&#45;&gt;literal_1934074515 -->
<g id="edge40" class="edge"><title>_:arcf086b6&#45;&gt;literal_1934074515</title>
<a xlink:href=" javascript:onclick=function(e){var f=e.target.style;f.stroke=f.stroke==&#39;&#39;?&#39;red&#39;:&#39;&#39;}" xlink:title="rdfs:label">
<path fill="none" stroke="black" d="M710.185,-396C730.531,-396 756.81,-396 781.872,-396"/>
<polygon fill="black" stroke="black" points="782.143,-399.5 792.143,-396 782.143,-392.5 782.143,-399.5"/>
</a>
<a xlink:href=" javascript:onclick=function(e){var f=e.target.style;f.stroke=f.stroke==&#39;&#39;?&#39;red&#39;:&#39;&#39;}" xlink:title="rdfs:label">
<text text-anchor="middle" x="748" y="-400" font-family="gothic" font-size="10.00">rdfs:label</text>
</a>
</g>
<!-- literal_571710401 -->
<g id="node24" class="node"><title>literal_571710401</title>
<polygon fill="#ffe666" stroke="#ffe666" points="900,-360 828,-360 828,-324 900,-324 900,-360"/>
<text text-anchor="middle" x="864" y="-339.5" font-family="gothic" font-size="10.00">CELL LINE</text>
</g>
<!-- _:arcf086b8&#45;&gt;literal_571710401 -->
<g id="edge46" class="edge"><title>_:arcf086b8&#45;&gt;literal_571710401</title>
<a xlink:href=" javascript:onclick=function(e){var f=e.target.style;f.stroke=f.stroke==&#39;&#39;?&#39;red&#39;:&#39;&#39;}" xlink:title="rdfs:label">
<path fill="none" stroke="black" d="M708.849,-319.952C739.432,-324.298 784.143,-330.652 817.72,-335.423"/>
<polygon fill="black" stroke="black" points="817.363,-338.908 827.756,-336.849 818.348,-331.977 817.363,-338.908"/>
</a>
<a xlink:href=" javascript:onclick=function(e){var f=e.target.style;f.stroke=f.stroke==&#39;&#39;?&#39;red&#39;:&#39;&#39;}" xlink:title="rdfs:label">
<text text-anchor="middle" x="748" y="-331" font-family="gothic" font-size="10.00">rdfs:label</text>
</a>
</g>
<!-- http://semanticscience.org/resource/SIO_010054 -->
<g id="node25" class="node"><title>http://semanticscience.org/resource/SIO_010054</title>
<a xlink:href="http://www.kanzaki.com/works/2009/pub/graph-draw?u=http%3A%2F%2Fsemanticscience.org%2Fresource%2FSIO_010054" xlink:title="sio:SIO_010054">
<ellipse fill="#b7ffaf" stroke="#b7ffaf" cx="864" cy="-288" rx="52.9405" ry="18"/>
<text text-anchor="middle" x="864" y="-285.5" font-family="gothic" font-size="10.00">sio:SIO_010054</text>
</a>
</g>
<!-- _:arcf086b8&#45;&gt;http://semanticscience.org/resource/SIO_010054 -->
<g id="edge48" class="edge"><title>_:arcf086b8&#45;&gt;http://semanticscience.org/resource/SIO_010054</title>
<a xlink:href=" javascript:onclick=function(e){var f=e.target.style;f.stroke=f.stroke==&#39;&#39;?&#39;red&#39;:&#39;&#39;}" xlink:title="rdf:type">
<path fill="none" stroke="black" d="M707.651,-308.453C714.379,-307.233 721.405,-306.022 728,-305 752.58,-301.191 779.762,-297.658 803.322,-294.811"/>
<polygon fill="black" stroke="black" points="804.009,-298.254 813.524,-293.594 803.18,-291.304 804.009,-298.254"/>
</a>
<a xlink:href=" javascript:onclick=function(e){var f=e.target.style;f.stroke=f.stroke==&#39;&#39;?&#39;red&#39;:&#39;&#39;}" xlink:title="rdf:type">
<text text-anchor="middle" x="748" y="-309" font-family="gothic" font-size="10.00">rdf:type</text>
</a>
</g>
<!-- literal_3162930950 -->
<g id="node26" class="node"><title>literal_3162930950</title>
<polygon fill="#ffe666" stroke="#ffe666" points="942,-252 786,-252 786,-216 942,-216 942,-252"/>
<text text-anchor="middle" x="864" y="-231.5" font-family="gothic" font-size="10.00">processing of BHK21&#45;C13 ce ...</text>
</g>
<!-- _:arcf086b9&#45;&gt;literal_3162930950 -->
<g id="edge50" class="edge"><title>_:arcf086b9&#45;&gt;literal_3162930950</title>
<a xlink:href=" javascript:onclick=function(e){var f=e.target.style;f.stroke=f.stroke==&#39;&#39;?&#39;red&#39;:&#39;&#39;}" xlink:title="rdfs:label">
<path fill="none" stroke="black" d="M709.738,-245.367C728.549,-243.981 752.523,-242.214 775.933,-240.489"/>
<polygon fill="black" stroke="black" points="776.199,-243.979 785.914,-239.754 775.684,-236.998 776.199,-243.979"/>
</a>
<a xlink:href=" javascript:onclick=function(e){var f=e.target.style;f.stroke=f.stroke==&#39;&#39;?&#39;red&#39;:&#39;&#39;}" xlink:title="rdfs:label">
<text text-anchor="middle" x="748" y="-247" font-family="gothic" font-size="10.00">rdfs:label</text>
</a>
</g>
<!-- literal_2029291154 -->
<g id="node29" class="node"><title>literal_2029291154</title>
<polygon fill="#ffe666" stroke="#ffe666" points="900,-198 828,-198 828,-162 900,-162 900,-198"/>
<text text-anchor="middle" x="864" y="-177.5" font-family="gothic" font-size="10.00">PMID</text>
</g>
<!-- _:arcf086b11&#45;&gt;literal_2029291154 -->
<g id="edge56" class="edge"><title>_:arcf086b11&#45;&gt;literal_2029291154</title>
<a xlink:href=" javascript:onclick=function(e){var f=e.target.style;f.stroke=f.stroke==&#39;&#39;?&#39;red&#39;:&#39;&#39;}" xlink:title="rdfs:label">
<path fill="none" stroke="black" d="M710.185,-180C740.691,-180 784.538,-180 817.619,-180"/>
<polygon fill="black" stroke="black" points="817.95,-183.5 827.95,-180 817.95,-176.5 817.95,-183.5"/>
</a>
<a xlink:href=" javascript:onclick=function(e){var f=e.target.style;f.stroke=f.stroke==&#39;&#39;?&#39;red&#39;:&#39;&#39;}" xlink:title="rdfs:label">
<text text-anchor="middle" x="748" y="-184" font-family="gothic" font-size="10.00">rdfs:label</text>
</a>
</g>
<!-- literal_1372247524 -->
<g id="node30" class="node"><title>literal_1372247524</title>
<polygon fill="#ffe666" stroke="#ffe666" points="905,-144 823,-144 823,-108 905,-108 905,-144"/>
<text text-anchor="middle" x="864" y="-123.5" font-family="gothic" font-size="10.00">PMID:4340161</text>
</g>
<!-- _:arcf086b12&#45;&gt;literal_1372247524 -->
<g id="edge58" class="edge"><title>_:arcf086b12&#45;&gt;literal_1372247524</title>
<a xlink:href=" javascript:onclick=function(e){var f=e.target.style;f.stroke=f.stroke==&#39;&#39;?&#39;red&#39;:&#39;&#39;}" xlink:title="rdfs:label">
<path fill="none" stroke="black" d="M710.185,-126C739.137,-126 780.105,-126 812.481,-126"/>
<polygon fill="black" stroke="black" points="812.665,-129.5 822.665,-126 812.665,-122.5 812.665,-129.5"/>
</a>
<a xlink:href=" javascript:onclick=function(e){var f=e.target.style;f.stroke=f.stroke==&#39;&#39;?&#39;red&#39;:&#39;&#39;}" xlink:title="rdfs:label">
<text text-anchor="middle" x="748" y="-130" font-family="gothic" font-size="10.00">rdfs:label</text>
</a>
</g>
<!-- literal_4228322907 -->
<g id="node33" class="node"><title>literal_4228322907</title>
<polygon fill="#ffe666" stroke="#ffe666" points="922,-90 806,-90 806,-54 922,-54 922,-90"/>
<text text-anchor="middle" x="864" y="-69.5" font-family="gothic" font-size="10.00">ISOLATION SOURCE</text>
</g>
<!-- _:arcf086b14&#45;&gt;literal_4228322907 -->
<g id="edge64" class="edge"><title>_:arcf086b14&#45;&gt;literal_4228322907</title>
<a xlink:href=" javascript:onclick=function(e){var f=e.target.style;f.stroke=f.stroke==&#39;&#39;?&#39;red&#39;:&#39;&#39;}" xlink:title="rdfs:label">
<path fill="none" stroke="black" d="M710.185,-72C734.36,-72 766.912,-72 795.844,-72"/>
<polygon fill="black" stroke="black" points="795.908,-75.5001 805.908,-72 795.908,-68.5001 795.908,-75.5001"/>
</a>
<a xlink:href=" javascript:onclick=function(e){var f=e.target.style;f.stroke=f.stroke==&#39;&#39;?&#39;red&#39;:&#39;&#39;}" xlink:title="rdfs:label">
<text text-anchor="middle" x="748" y="-76" font-family="gothic" font-size="10.00">rdfs:label</text>
</a>
</g>
<!-- literal_3407131 -->
<g id="node34" class="node"><title>literal_3407131</title>
<polygon fill="#ffe666" stroke="#ffe666" points="935,-36 793,-36 793,-1.77636e-14 935,-3.55271e-15 935,-36"/>
<text text-anchor="middle" x="864" y="-15.5" font-family="gothic" font-size="10.00">baby hamster kidney cells ...</text>
</g>
<!-- _:arcf086b15&#45;&gt;literal_3407131 -->
<g id="edge66" class="edge"><title>_:arcf086b15&#45;&gt;literal_3407131</title>
<a xlink:href=" javascript:onclick=function(e){var f=e.target.style;f.stroke=f.stroke==&#39;&#39;?&#39;red&#39;:&#39;&#39;}" xlink:title="rdfs:label">
<path fill="none" stroke="black" d="M710.185,-18C730.531,-18 756.81,-18 781.872,-18"/>
<polygon fill="black" stroke="black" points="782.143,-21.5001 792.143,-18 782.143,-14.5001 782.143,-21.5001"/>
</a>
<a xlink:href=" javascript:onclick=function(e){var f=e.target.style;f.stroke=f.stroke==&#39;&#39;?&#39;red&#39;:&#39;&#39;}" xlink:title="rdfs:label">
<text text-anchor="middle" x="748" y="-22" font-family="gothic" font-size="10.00">rdfs:label</text>
</a>
</g>
</g>
</svg>
