<?xml version="1.0" encoding="UTF-8" standalone="no"?>
<!DOCTYPE svg PUBLIC "-//W3C//DTD SVG 1.1//EN"
 "http://www.w3.org/Graphics/SVG/1.1/DTD/svg11.dtd">
<!-- Generated by graphviz version 2.26.0 (20091210.2329)
 -->
<!-- Title: G Pages: 1 -->
<svg width="1072pt" height="1235pt"
 viewBox="0.00 0.00 1072.00 1235.00" xmlns="http://www.w3.org/2000/svg" xmlns:xlink="http://www.w3.org/1999/xlink">
<g id="graph1" class="graph" transform="scale(1 1) rotate(0) translate(4 1231)">
<title>G</title>
<polygon fill="white" stroke="white" points="-4,5 -4,-1231 1069,-1231 1069,5 -4,5"/>
<!-- http://glyconavi.org/glycobio/glycosample/Glycosample -->
<g id="node1" class="node"><title>http://glyconavi.org/glycobio/glycosample/Glycosample</title>
<a xlink:href="http://www.kanzaki.com/works/2009/pub/graph-draw?u=http%3A%2F%2Fglyconavi.org%2Fglycobio%2Fglycosample%2FGlycosample" xlink:title="gs:Glycosample">
<ellipse fill="#b7ffaf" stroke="#b7ffaf" cx="54" cy="-882" rx="53.0555" ry="18"/>
<text text-anchor="middle" x="54" y="-879.5" font-family="gothic" font-size="10.00">gs:Glycosample</text>
</a>
</g>
<!-- http://glyconavi.org/glycobio/glycosample/GS_2 -->
<g id="node2" class="node"><title>http://glyconavi.org/glycobio/glycosample/GS_2</title>
<a xlink:href="http://www.kanzaki.com/works/2009/pub/graph-draw?u=http%3A%2F%2Fglyconavi.org%2Fglycobio%2Fglycosample%2FGS_2" xlink:title="gs:GS_2">
<ellipse fill="#b7ffaf" stroke="#b7ffaf" cx="254" cy="-882" rx="36" ry="18"/>
<text text-anchor="middle" x="254" y="-879.5" font-family="gothic" font-size="10.00">gs:GS_2</text>
</a>
</g>
<!-- http://glyconavi.org/glycobio/glycosample/Glycosample&#45;&gt;http://glyconavi.org/glycobio/glycosample/GS_2 -->
<g id="edge2" class="edge"><title>http://glyconavi.org/glycobio/glycosample/Glycosample&#45;&gt;http://glyconavi.org/glycobio/glycosample/GS_2</title>
<a xlink:href=" javascript:onclick=function(e){var f=e.target.style;f.stroke=f.stroke==&#39;&#39;?&#39;red&#39;:&#39;&#39;}" xlink:title="gs:has_resource">
<path fill="none" stroke="black" d="M107.596,-882C138.855,-882 177.885,-882 207.784,-882"/>
<polygon fill="black" stroke="black" points="207.952,-885.5 217.952,-882 207.952,-878.5 207.952,-885.5"/>
</a>
<a xlink:href=" javascript:onclick=function(e){var f=e.target.style;f.stroke=f.stroke==&#39;&#39;?&#39;red&#39;:&#39;&#39;}" xlink:title="gs:has_resource">
<text text-anchor="middle" x="163" y="-886" font-family="gothic" font-size="10.00">gs:has_resource</text>
</a>
</g>
<!-- literal_2463738207 -->
<g id="node3" class="node"><title>literal_2463738207</title>
<polygon fill="#ffe666" stroke="#ffe666" points="483,-1008 411,-1008 411,-972 483,-972 483,-1008"/>
<text text-anchor="middle" x="447" y="-987.5" font-family="gothic" font-size="10.00">GS_2</text>
</g>
<!-- http://glyconavi.org/glycobio/glycosample/GS_2&#45;&gt;literal_2463738207 -->
<g id="edge4" class="edge"><title>http://glyconavi.org/glycobio/glycosample/GS_2&#45;&gt;literal_2463738207</title>
<a xlink:href=" javascript:onclick=function(e){var f=e.target.style;f.stroke=f.stroke==&#39;&#39;?&#39;red&#39;:&#39;&#39;}" xlink:title="gs:glycosample\n_id">
<path fill="none" stroke="black" d="M267.638,-898.968C277.761,-910.66 292.453,-925.859 308,-936 336.708,-954.725 372.898,-968.525 401.153,-977.486"/>
<polygon fill="black" stroke="black" points="400.204,-980.855 410.792,-980.453 402.265,-974.165 400.204,-980.855"/>
</a>
<a xlink:href=" javascript:onclick=function(e){var f=e.target.style;f.stroke=f.stroke==&#39;&#39;?&#39;red&#39;:&#39;&#39;}" xlink:title="gs:glycosample\n_id">
<text text-anchor="middle" x="346" y="-987" font-family="gothic" font-size="10.00">gs:glycosample</text>
<text text-anchor="middle" x="346" y="-974" font-family="gothic" font-size="10.00">_id</text>
</a>
</g>
<!-- literal_4226196951 -->
<g id="node4" class="node"><title>literal_4226196951</title>
<polygon fill="#ffe666" stroke="#ffe666" points="483,-954 411,-954 411,-918 483,-918 483,-954"/>
<text text-anchor="middle" x="447" y="-933.5" font-family="gothic" font-size="10.00">GS_2</text>
</g>
<!-- http://glyconavi.org/glycobio/glycosample/GS_2&#45;&gt;literal_4226196951 -->
<g id="edge6" class="edge"><title>http://glyconavi.org/glycobio/glycosample/GS_2&#45;&gt;literal_4226196951</title>
<a xlink:href=" javascript:onclick=function(e){var f=e.target.style;f.stroke=f.stroke==&#39;&#39;?&#39;red&#39;:&#39;&#39;}" xlink:title="dcterms:identifier">
<path fill="none" stroke="black" d="M284.485,-891.859C292.141,-894.263 300.355,-896.78 308,-899 338.835,-907.953 373.759,-917.246 400.887,-924.279"/>
<polygon fill="black" stroke="black" points="400.32,-927.747 410.877,-926.858 402.07,-920.969 400.32,-927.747"/>
</a>
<a xlink:href=" javascript:onclick=function(e){var f=e.target.style;f.stroke=f.stroke==&#39;&#39;?&#39;red&#39;:&#39;&#39;}" xlink:title="dcterms:identifier">
<text text-anchor="middle" x="346" y="-923" font-family="gothic" font-size="10.00">dcterms:identifier</text>
</a>
</g>
<!-- http://glyconavi.org/glycobio/glycosample/Sample -->
<g id="node5" class="node"><title>http://glyconavi.org/glycobio/glycosample/Sample</title>
<a xlink:href="http://www.kanzaki.com/works/2009/pub/graph-draw?u=http%3A%2F%2Fglyconavi.org%2Fglycobio%2Fglycosample%2FSample" xlink:title="gs:Sample">
<ellipse fill="#b7ffaf" stroke="#b7ffaf" cx="447" cy="-882" rx="38.782" ry="18"/>
<text text-anchor="middle" x="447" y="-879.5" font-family="gothic" font-size="10.00">gs:Sample</text>
</a>
</g>
<!-- http://glyconavi.org/glycobio/glycosample/GS_2&#45;&gt;http://glyconavi.org/glycobio/glycosample/Sample -->
<g id="edge8" class="edge"><title>http://glyconavi.org/glycobio/glycosample/GS_2&#45;&gt;http://glyconavi.org/glycobio/glycosample/Sample</title>
<a xlink:href=" javascript:onclick=function(e){var f=e.target.style;f.stroke=f.stroke==&#39;&#39;?&#39;red&#39;:&#39;&#39;}" xlink:title="rdf:type">
<path fill="none" stroke="black" d="M290.302,-882C320.682,-882 364.315,-882 397.827,-882"/>
<polygon fill="black" stroke="black" points="397.876,-885.5 407.876,-882 397.876,-878.5 397.876,-885.5"/>
</a>
<a xlink:href=" javascript:onclick=function(e){var f=e.target.style;f.stroke=f.stroke==&#39;&#39;?&#39;red&#39;:&#39;&#39;}" xlink:title="rdf:type">
<text text-anchor="middle" x="346" y="-886" font-family="gothic" font-size="10.00">rdf:type</text>
</a>
</g>
<!-- http://glyconavi.org/glycobio/glycosample/GS_2_E1 -->
<g id="node6" class="node"><title>http://glyconavi.org/glycobio/glycosample/GS_2_E1</title>
<a xlink:href="http://www.kanzaki.com/works/2009/pub/graph-draw?u=http%3A%2F%2Fglyconavi.org%2Fglycobio%2Fglycosample%2FGS_2_E1" xlink:title="gs:GS_2_E1">
<ellipse fill="#b7ffaf" stroke="#b7ffaf" cx="447" cy="-828" rx="43.8243" ry="18"/>
<text text-anchor="middle" x="447" y="-825.5" font-family="gothic" font-size="10.00">gs:GS_2_E1</text>
</a>
</g>
<!-- http://glyconavi.org/glycobio/glycosample/GS_2&#45;&gt;http://glyconavi.org/glycobio/glycosample/GS_2_E1 -->
<g id="edge10" class="edge"><title>http://glyconavi.org/glycobio/glycosample/GS_2&#45;&gt;http://glyconavi.org/glycobio/glycosample/GS_2_E1</title>
<a xlink:href=" javascript:onclick=function(e){var f=e.target.style;f.stroke=f.stroke==&#39;&#39;?&#39;red&#39;:&#39;&#39;}" xlink:title="gs:glycosample\n_entry">
<path fill="none" stroke="black" d="M276.062,-867.53C285.55,-861.904 296.976,-855.888 308,-852 335.219,-842.401 366.836,-836.554 393.033,-833.038"/>
<polygon fill="black" stroke="black" points="393.674,-836.485 403.156,-831.758 392.796,-829.54 393.674,-836.485"/>
</a>
<a xlink:href=" javascript:onclick=function(e){var f=e.target.style;f.stroke=f.stroke==&#39;&#39;?&#39;red&#39;:&#39;&#39;}" xlink:title="gs:glycosample\n_entry">
<text text-anchor="middle" x="346" y="-869" font-family="gothic" font-size="10.00">gs:glycosample</text>
<text text-anchor="middle" x="346" y="-856" font-family="gothic" font-size="10.00">_entry</text>
</a>
</g>
<!-- http://glyconavi.org/glycobio/glycosample/GS_2_E2 -->
<g id="node7" class="node"><title>http://glyconavi.org/glycobio/glycosample/GS_2_E2</title>
<a xlink:href="http://www.kanzaki.com/works/2009/pub/graph-draw?u=http%3A%2F%2Fglyconavi.org%2Fglycobio%2Fglycosample%2FGS_2_E2" xlink:title="gs:GS_2_E2">
<ellipse fill="#b7ffaf" stroke="#b7ffaf" cx="447" cy="-288" rx="43.8243" ry="18"/>
<text text-anchor="middle" x="447" y="-285.5" font-family="gothic" font-size="10.00">gs:GS_2_E2</text>
</a>
</g>
<!-- http://glyconavi.org/glycobio/glycosample/GS_2&#45;&gt;http://glyconavi.org/glycobio/glycosample/GS_2_E2 -->
<g id="edge12" class="edge"><title>http://glyconavi.org/glycobio/glycosample/GS_2&#45;&gt;http://glyconavi.org/glycobio/glycosample/GS_2_E2</title>
<a xlink:href=" javascript:onclick=function(e){var f=e.target.style;f.stroke=f.stroke==&#39;&#39;?&#39;red&#39;:&#39;&#39;}" xlink:title="gs:glycosample\n_entry">
<path fill="none" stroke="black" d="M259.776,-864.223C287.215,-779.774 404.451,-418.953 437.999,-315.703"/>
<polygon fill="black" stroke="black" points="441.391,-316.59 441.152,-305.998 434.733,-314.427 441.391,-316.59"/>
</a>
<a xlink:href=" javascript:onclick=function(e){var f=e.target.style;f.stroke=f.stroke==&#39;&#39;?&#39;red&#39;:&#39;&#39;}" xlink:title="gs:glycosample\n_entry">
<text text-anchor="middle" x="346" y="-723" font-family="gothic" font-size="10.00">gs:glycosample</text>
<text text-anchor="middle" x="346" y="-710" font-family="gothic" font-size="10.00">_entry</text>
</a>
</g>
<!-- http://glyconavi.org/glycobio/glycosample/Sample_Entry -->
<g id="node8" class="node"><title>http://glyconavi.org/glycobio/glycosample/Sample_Entry</title>
<a xlink:href="http://www.kanzaki.com/works/2009/pub/graph-draw?u=http%3A%2F%2Fglyconavi.org%2Fglycobio%2Fglycosample%2FSample_Entry" xlink:title="gs:Sample_Entry">
<ellipse fill="#b7ffaf" stroke="#b7ffaf" cx="718" cy="-504" rx="56.1328" ry="18"/>
<text text-anchor="middle" x="718" y="-501.5" font-family="gothic" font-size="10.00">gs:Sample_Entry</text>
</a>
</g>
<!-- http://glyconavi.org/glycobio/glycosample/GS_2_E1&#45;&gt;http://glyconavi.org/glycobio/glycosample/Sample_Entry -->
<g id="edge14" class="edge"><title>http://glyconavi.org/glycobio/glycosample/GS_2_E1&#45;&gt;http://glyconavi.org/glycobio/glycosample/Sample_Entry</title>
<a xlink:href=" javascript:onclick=function(e){var f=e.target.style;f.stroke=f.stroke==&#39;&#39;?&#39;red&#39;:&#39;&#39;}" xlink:title="rdf:type">
<path fill="none" stroke="black" d="M448.61,-809.86C453.923,-754.153 472.723,-587.083 510,-550 546.929,-513.262 606.185,-503.025 652.022,-501.249"/>
<polygon fill="black" stroke="black" points="652.271,-504.744 662.176,-500.983 652.087,-497.746 652.271,-504.744"/>
</a>
<a xlink:href=" javascript:onclick=function(e){var f=e.target.style;f.stroke=f.stroke==&#39;&#39;?&#39;red&#39;:&#39;&#39;}" xlink:title="rdf:type">
<text text-anchor="middle" x="550" y="-554" font-family="gothic" font-size="10.00">rdf:type</text>
</a>
</g>
<!-- literal_1798062280 -->
<g id="node9" class="node"><title>literal_1798062280</title>
<polygon fill="#ffe666" stroke="#ffe666" points="754,-684 682,-684 682,-648 754,-648 754,-684"/>
<text text-anchor="middle" x="718" y="-663.5" font-family="gothic" font-size="10.00">1991473</text>
</g>
<!-- http://glyconavi.org/glycobio/glycosample/GS_2_E1&#45;&gt;literal_1798062280 -->
<g id="edge16" class="edge"><title>http://glyconavi.org/glycobio/glycosample/GS_2_E1&#45;&gt;literal_1798062280</title>
<a xlink:href=" javascript:onclick=function(e){var f=e.target.style;f.stroke=f.stroke==&#39;&#39;?&#39;red&#39;:&#39;&#39;}" xlink:title="gs:pmid">
<path fill="none" stroke="black" d="M452.517,-809.982C460.919,-785.614 479.273,-742.506 510,-719 557.229,-682.87 626.394,-671.189 671.8,-667.516"/>
<polygon fill="black" stroke="black" points="672.229,-670.994 681.956,-666.795 671.733,-664.012 672.229,-670.994"/>
</a>
<a xlink:href=" javascript:onclick=function(e){var f=e.target.style;f.stroke=f.stroke==&#39;&#39;?&#39;red&#39;:&#39;&#39;}" xlink:title="gs:pmid">
<text text-anchor="middle" x="550" y="-723" font-family="gothic" font-size="10.00">gs:pmid</text>
</a>
</g>
<!-- http://identifiers.org/pubmed/1991473 -->
<g id="node10" class="node"><title>http://identifiers.org/pubmed/1991473</title>
<a xlink:href="http://www.kanzaki.com/works/2009/pub/graph-draw?u=http%3A%2F%2Fidentifiers.org%2Fpubmed%2F1991473" xlink:title="http://identifiers.org/pubmed/1991473">
<ellipse fill="#b7ffaf" stroke="#b7ffaf" cx="718" cy="-612" rx="109.074" ry="18"/>
<text text-anchor="middle" x="718" y="-609.5" font-family="gothic" font-size="10.00">http://identifiers.org/pubmed/1991473</text>
</a>
</g>
<!-- http://glyconavi.org/glycobio/glycosample/GS_2_E1&#45;&gt;http://identifiers.org/pubmed/1991473 -->
<g id="edge18" class="edge"><title>http://glyconavi.org/glycobio/glycosample/GS_2_E1&#45;&gt;http://identifiers.org/pubmed/1991473</title>
<a xlink:href=" javascript:onclick=function(e){var f=e.target.style;f.stroke=f.stroke==&#39;&#39;?&#39;red&#39;:&#39;&#39;}" xlink:title="dcterms:reference">
<path fill="none" stroke="black" d="M448.607,-809.937C452.612,-776.088 466.127,-703.019 510,-664 536.138,-640.754 571.114,-627.568 604.918,-620.188"/>
<polygon fill="black" stroke="black" points="605.779,-623.584 614.885,-618.168 604.389,-616.724 605.779,-623.584"/>
</a>
<a xlink:href=" javascript:onclick=function(e){var f=e.target.style;f.stroke=f.stroke==&#39;&#39;?&#39;red&#39;:&#39;&#39;}" xlink:title="dcterms:reference">
<text text-anchor="middle" x="550" y="-668" font-family="gothic" font-size="10.00">dcterms:reference</text>
</a>
</g>
<!-- literal_2778470972 -->
<g id="node11" class="node"><title>literal_2778470972</title>
<polygon fill="#ffe666" stroke="#ffe666" points="764,-576 672,-576 672,-540 764,-540 764,-576"/>
<text text-anchor="middle" x="718" y="-555.5" font-family="gothic" font-size="10.00">Eur. J. Biochem. </text>
</g>
<!-- http://glyconavi.org/glycobio/glycosample/GS_2_E1&#45;&gt;literal_2778470972 -->
<g id="edge20" class="edge"><title>http://glyconavi.org/glycobio/glycosample/GS_2_E1&#45;&gt;literal_2778470972</title>
<a xlink:href=" javascript:onclick=function(e){var f=e.target.style;f.stroke=f.stroke==&#39;&#39;?&#39;red&#39;:&#39;&#39;}" xlink:title="gs:journal_name">
<path fill="none" stroke="black" d="M449.758,-809.944C457.376,-762.411 480.133,-635.514 510,-607 550.165,-568.654 614.469,-558.398 660.953,-556.493"/>
<polygon fill="black" stroke="black" points="661.282,-559.985 671.176,-556.195 661.079,-552.988 661.282,-559.985"/>
</a>
<a xlink:href=" javascript:onclick=function(e){var f=e.target.style;f.stroke=f.stroke==&#39;&#39;?&#39;red&#39;:&#39;&#39;}" xlink:title="gs:journal_name">
<text text-anchor="middle" x="550" y="-611" font-family="gothic" font-size="10.00">gs:journal_name</text>
</a>
</g>
<!-- literal_3613396166 -->
<g id="node12" class="node"><title>literal_3613396166</title>
<polygon fill="#ffe666" stroke="#ffe666" points="792,-1224 644,-1224 644,-1188 792,-1188 792,-1224"/>
<text text-anchor="middle" x="718" y="-1203.5" font-family="gothic" font-size="10.00">Weisshaar G._et_al_Table4 ...</text>
</g>
<!-- http://glyconavi.org/glycobio/glycosample/GS_2_E1&#45;&gt;literal_3613396166 -->
<g id="edge22" class="edge"><title>http://glyconavi.org/glycobio/glycosample/GS_2_E1&#45;&gt;literal_3613396166</title>
<a xlink:href=" javascript:onclick=function(e){var f=e.target.style;f.stroke=f.stroke==&#39;&#39;?&#39;red&#39;:&#39;&#39;}" xlink:title="gs:journal_site">
<path fill="none" stroke="black" d="M478.07,-841.091C483.567,-844.791 488.61,-849.384 492,-855 510.519,-885.677 485.731,-1150.64 510,-1177 540.519,-1210.15 590.051,-1218.05 633.123,-1217.36"/>
<polygon fill="black" stroke="black" points="633.461,-1220.85 643.345,-1217.03 633.238,-1213.85 633.461,-1220.85"/>
</a>
<a xlink:href=" javascript:onclick=function(e){var f=e.target.style;f.stroke=f.stroke==&#39;&#39;?&#39;red&#39;:&#39;&#39;}" xlink:title="gs:journal_site">
<text text-anchor="middle" x="550" y="-1218" font-family="gothic" font-size="10.00">gs:journal_site</text>
</a>
</g>
<!-- literal_41266798 -->
<g id="node13" class="node"><title>literal_41266798</title>
<polygon fill="#ffe666" stroke="#ffe666" points="791,-1170 645,-1170 645,-1134 791,-1134 791,-1170"/>
<text text-anchor="middle" x="718" y="-1149.5" font-family="gothic" font-size="10.00">NMR investigations of the &#160;...</text>
</g>
<!-- http://glyconavi.org/glycobio/glycosample/GS_2_E1&#45;&gt;literal_41266798 -->
<g id="edge24" class="edge"><title>http://glyconavi.org/glycobio/glycosample/GS_2_E1&#45;&gt;literal_41266798</title>
<a xlink:href=" javascript:onclick=function(e){var f=e.target.style;f.stroke=f.stroke==&#39;&#39;?&#39;red&#39;:&#39;&#39;}" xlink:title="gs:journal\n_title">
<path fill="none" stroke="black" d="M478.022,-841.12C483.523,-844.818 488.579,-849.403 492,-855 523.243,-906.12 469.079,-1080.24 510,-1124 526.88,-1142.05 584.276,-1148.83 634.509,-1151.22"/>
<polygon fill="black" stroke="black" points="634.635,-1154.73 644.774,-1151.65 634.93,-1147.74 634.635,-1154.73"/>
</a>
<a xlink:href=" javascript:onclick=function(e){var f=e.target.style;f.stroke=f.stroke==&#39;&#39;?&#39;red&#39;:&#39;&#39;}" xlink:title="gs:journal\n_title">
<text text-anchor="middle" x="550" y="-1164" font-family="gothic" font-size="10.00">gs:journal</text>
<text text-anchor="middle" x="550" y="-1151" font-family="gothic" font-size="10.00">_title</text>
</a>
</g>
<!-- literal_3012137860 -->
<g id="node14" class="node"><title>literal_3012137860</title>
<polygon fill="#ffe666" stroke="#ffe666" points="754,-1116 682,-1116 682,-1080 754,-1080 754,-1116"/>
<text text-anchor="middle" x="718" y="-1095.5" font-family="gothic" font-size="10.00">Human</text>
</g>
<!-- http://glyconavi.org/glycobio/glycosample/GS_2_E1&#45;&gt;literal_3012137860 -->
<g id="edge26" class="edge"><title>http://glyconavi.org/glycobio/glycosample/GS_2_E1&#45;&gt;literal_3012137860</title>
<a xlink:href=" javascript:onclick=function(e){var f=e.target.style;f.stroke=f.stroke==&#39;&#39;?&#39;red&#39;:&#39;&#39;}" xlink:title="gs:organism">
<path fill="none" stroke="black" d="M477.951,-841.163C483.457,-844.859 488.534,-849.431 492,-855 517.453,-895.892 476.733,-1036.17 510,-1071 551.004,-1113.93 624.144,-1113.13 671.857,-1106.89"/>
<polygon fill="black" stroke="black" points="672.525,-1110.33 681.926,-1105.44 671.53,-1103.4 672.525,-1110.33"/>
</a>
<a xlink:href=" javascript:onclick=function(e){var f=e.target.style;f.stroke=f.stroke==&#39;&#39;?&#39;red&#39;:&#39;&#39;}" xlink:title="gs:organism">
<text text-anchor="middle" x="550" y="-1111" font-family="gothic" font-size="10.00">gs:organism</text>
</a>
</g>
<!-- literal_3136373693 -->
<g id="node15" class="node"><title>literal_3136373693</title>
<polygon fill="#ffe666" stroke="#ffe666" points="758,-1062 678,-1062 678,-1026 758,-1026 758,-1062"/>
<text text-anchor="middle" x="718" y="-1041.5" font-family="gothic" font-size="10.00">Homo sapiens</text>
</g>
<!-- http://glyconavi.org/glycobio/glycosample/GS_2_E1&#45;&gt;literal_3136373693 -->
<g id="edge28" class="edge"><title>http://glyconavi.org/glycobio/glycosample/GS_2_E1&#45;&gt;literal_3136373693</title>
<a xlink:href=" javascript:onclick=function(e){var f=e.target.style;f.stroke=f.stroke==&#39;&#39;?&#39;red&#39;:&#39;&#39;}" xlink:title="gs:taxonomy\n_name">
<path fill="none" stroke="black" d="M477.778,-841.273C483.297,-844.961 488.422,-849.502 492,-855 527.422,-909.428 466.073,-952.173 510,-1000 549.543,-1043.05 619.77,-1049.68 667.58,-1048.47"/>
<polygon fill="black" stroke="black" points="667.859,-1051.96 677.721,-1048.09 667.596,-1044.96 667.859,-1051.96"/>
</a>
<a xlink:href=" javascript:onclick=function(e){var f=e.target.style;f.stroke=f.stroke==&#39;&#39;?&#39;red&#39;:&#39;&#39;}" xlink:title="gs:taxonomy\n_name">
<text text-anchor="middle" x="550" y="-1058" font-family="gothic" font-size="10.00">gs:taxonomy</text>
<text text-anchor="middle" x="550" y="-1045" font-family="gothic" font-size="10.00">_name</text>
</a>
</g>
<!-- literal_3142160827 -->
<g id="node16" class="node"><title>literal_3142160827</title>
<polygon fill="#ffe666" stroke="#ffe666" points="754,-1008 682,-1008 682,-972 754,-972 754,-1008"/>
<text text-anchor="middle" x="718" y="-987.5" font-family="gothic" font-size="10.00">9606</text>
</g>
<!-- http://glyconavi.org/glycobio/glycosample/GS_2_E1&#45;&gt;literal_3142160827 -->
<g id="edge30" class="edge"><title>http://glyconavi.org/glycobio/glycosample/GS_2_E1&#45;&gt;literal_3142160827</title>
<a xlink:href=" javascript:onclick=function(e){var f=e.target.style;f.stroke=f.stroke==&#39;&#39;?&#39;red&#39;:&#39;&#39;}" xlink:title="gs:taxonomy_id">
<path fill="none" stroke="black" d="M477.44,-841.503C482.983,-845.174 488.203,-849.65 492,-855 514.852,-887.201 482.399,-913.763 510,-942 552.026,-984.995 624.319,-992.773 671.639,-992.703"/>
<polygon fill="black" stroke="black" points="671.972,-996.199 681.924,-992.564 671.877,-989.2 671.972,-996.199"/>
</a>
<a xlink:href=" javascript:onclick=function(e){var f=e.target.style;f.stroke=f.stroke==&#39;&#39;?&#39;red&#39;:&#39;&#39;}" xlink:title="gs:taxonomy_id">
<text text-anchor="middle" x="550" y="-987" font-family="gothic" font-size="10.00">gs:taxonomy_id</text>
</a>
</g>
<!-- literal_1885843506 -->
<g id="node17" class="node"><title>literal_1885843506</title>
<polygon fill="#ffe666" stroke="#ffe666" points="775,-954 661,-954 661,-918 775,-918 775,-954"/>
<text text-anchor="middle" x="718" y="-933.5" font-family="gothic" font-size="10.00">human pituitary glands</text>
</g>
<!-- http://glyconavi.org/glycobio/glycosample/GS_2_E1&#45;&gt;literal_1885843506 -->
<g id="edge32" class="edge"><title>http://glyconavi.org/glycobio/glycosample/GS_2_E1&#45;&gt;literal_1885843506</title>
<a xlink:href=" javascript:onclick=function(e){var f=e.target.style;f.stroke=f.stroke==&#39;&#39;?&#39;red&#39;:&#39;&#39;}" xlink:title="gs:tissue_type">
<path fill="none" stroke="black" d="M475.905,-842.075C481.687,-845.747 487.391,-850.079 492,-855 503.958,-867.767 496.146,-879.321 510,-890 549.946,-920.793 606.361,-931.832 650.361,-935.425"/>
<polygon fill="black" stroke="black" points="650.182,-938.921 660.404,-936.135 650.676,-931.939 650.182,-938.921"/>
</a>
<a xlink:href=" javascript:onclick=function(e){var f=e.target.style;f.stroke=f.stroke==&#39;&#39;?&#39;red&#39;:&#39;&#39;}" xlink:title="gs:tissue_type">
<text text-anchor="middle" x="550" y="-929" font-family="gothic" font-size="10.00">gs:tissue_type</text>
</a>
</g>
<!-- literal_807660016 -->
<g id="node18" class="node"><title>literal_807660016</title>
<polygon fill="#ffe666" stroke="#ffe666" points="758,-900 678,-900 678,-864 758,-864 758,-900"/>
<text text-anchor="middle" x="718" y="-879.5" font-family="gothic" font-size="10.00">different health</text>
</g>
<!-- http://glyconavi.org/glycobio/glycosample/GS_2_E1&#45;&gt;literal_807660016 -->
<g id="edge34" class="edge"><title>http://glyconavi.org/glycobio/glycosample/GS_2_E1&#45;&gt;literal_807660016</title>
<a xlink:href=" javascript:onclick=function(e){var f=e.target.style;f.stroke=f.stroke==&#39;&#39;?&#39;red&#39;:&#39;&#39;}" xlink:title="gs:health_state">
<path fill="none" stroke="black" d="M472.908,-842.71C484.003,-848.376 497.308,-854.355 510,-858 562.289,-873.016 624.529,-878.677 667.214,-880.79"/>
<polygon fill="black" stroke="black" points="667.21,-884.293 677.357,-881.243 667.523,-877.3 667.21,-884.293"/>
</a>
<a xlink:href=" javascript:onclick=function(e){var f=e.target.style;f.stroke=f.stroke==&#39;&#39;?&#39;red&#39;:&#39;&#39;}" xlink:title="gs:health_state">
<text text-anchor="middle" x="550" y="-877" font-family="gothic" font-size="10.00">gs:health_state</text>
</a>
</g>
<!-- literal_4217543637 -->
<g id="node19" class="node"><title>literal_4217543637</title>
<polygon fill="#ffe666" stroke="#ffe666" points="754,-846 682,-846 682,-810 754,-810 754,-846"/>
<text text-anchor="middle" x="718" y="-825.5" font-family="gothic" font-size="10.00">brain</text>
</g>
<!-- http://glyconavi.org/glycobio/glycosample/GS_2_E1&#45;&gt;literal_4217543637 -->
<g id="edge36" class="edge"><title>http://glyconavi.org/glycobio/glycosample/GS_2_E1&#45;&gt;literal_4217543637</title>
<a xlink:href=" javascript:onclick=function(e){var f=e.target.style;f.stroke=f.stroke==&#39;&#39;?&#39;red&#39;:&#39;&#39;}" xlink:title="gs:host_body\n_site">
<path fill="none" stroke="black" d="M491.75,-828C541.435,-828 621.247,-828 671.59,-828"/>
<polygon fill="black" stroke="black" points="671.864,-831.5 681.864,-828 671.864,-824.5 671.864,-831.5"/>
</a>
<a xlink:href=" javascript:onclick=function(e){var f=e.target.style;f.stroke=f.stroke==&#39;&#39;?&#39;red&#39;:&#39;&#39;}" xlink:title="gs:host_body\n_site">
<text text-anchor="middle" x="550" y="-845" font-family="gothic" font-size="10.00">gs:host_body</text>
<text text-anchor="middle" x="550" y="-832" font-family="gothic" font-size="10.00">_site</text>
</a>
</g>
<!-- literal_4039652154 -->
<g id="node20" class="node"><title>literal_4039652154</title>
<polygon fill="#ffe666" stroke="#ffe666" points="768,-792 668,-792 668,-756 768,-756 768,-792"/>
<text text-anchor="middle" x="718" y="-771.5" font-family="gothic" font-size="10.00">different individuals</text>
</g>
<!-- http://glyconavi.org/glycobio/glycosample/GS_2_E1&#45;&gt;literal_4039652154 -->
<g id="edge38" class="edge"><title>http://glyconavi.org/glycobio/glycosample/GS_2_E1&#45;&gt;literal_4039652154</title>
<a xlink:href=" javascript:onclick=function(e){var f=e.target.style;f.stroke=f.stroke==&#39;&#39;?&#39;red&#39;:&#39;&#39;}" xlink:title="gs:isolation\n_source">
<path fill="none" stroke="black" d="M472.908,-813.29C484.003,-807.624 497.308,-801.645 510,-798 558.254,-784.143 614.983,-778.252 656.997,-775.765"/>
<polygon fill="black" stroke="black" points="657.281,-779.255 667.077,-775.217 656.901,-772.265 657.281,-779.255"/>
</a>
<a xlink:href=" javascript:onclick=function(e){var f=e.target.style;f.stroke=f.stroke==&#39;&#39;?&#39;red&#39;:&#39;&#39;}" xlink:title="gs:isolation\n_source">
<text text-anchor="middle" x="550" y="-815" font-family="gothic" font-size="10.00">gs:isolation</text>
<text text-anchor="middle" x="550" y="-802" font-family="gothic" font-size="10.00">_source</text>
</a>
</g>
<!-- literal_350754347 -->
<g id="node21" class="node"><title>literal_350754347</title>
<polygon fill="#ffe666" stroke="#ffe666" points="754,-738 682,-738 682,-702 754,-702 754,-738"/>
<text text-anchor="middle" x="718" y="-717.5" font-family="gothic" font-size="10.00">male, female</text>
</g>
<!-- http://glyconavi.org/glycobio/glycosample/GS_2_E1&#45;&gt;literal_350754347 -->
<g id="edge40" class="edge"><title>http://glyconavi.org/glycobio/glycosample/GS_2_E1&#45;&gt;literal_350754347</title>
<a xlink:href=" javascript:onclick=function(e){var f=e.target.style;f.stroke=f.stroke==&#39;&#39;?&#39;red&#39;:&#39;&#39;}" xlink:title="gs:sex">
<path fill="none" stroke="black" d="M459.752,-810.542C471.26,-796.091 489.494,-776.182 510,-765 560.75,-737.326 627.159,-726.67 671.13,-722.568"/>
<polygon fill="black" stroke="black" points="671.588,-726.041 681.254,-721.702 670.992,-719.067 671.588,-726.041"/>
</a>
<a xlink:href=" javascript:onclick=function(e){var f=e.target.style;f.stroke=f.stroke==&#39;&#39;?&#39;red&#39;:&#39;&#39;}" xlink:title="gs:sex">
<text text-anchor="middle" x="550" y="-769" font-family="gothic" font-size="10.00">gs:sex</text>
</a>
</g>
<!-- http://glyconavi.org/glycobio/glycosample/GS_2_E2&#45;&gt;http://glyconavi.org/glycobio/glycosample/Sample_Entry -->
<g id="edge42" class="edge"><title>http://glyconavi.org/glycobio/glycosample/GS_2_E2&#45;&gt;http://glyconavi.org/glycobio/glycosample/Sample_Entry</title>
<a xlink:href=" javascript:onclick=function(e){var f=e.target.style;f.stroke=f.stroke==&#39;&#39;?&#39;red&#39;:&#39;&#39;}" xlink:title="rdf:type">
<path fill="none" stroke="black" d="M448.144,-306.147C451.38,-341.297 463.671,-418.739 510,-459 531.287,-477.499 601.153,-489.937 654.09,-496.965"/>
<polygon fill="black" stroke="black" points="653.731,-500.448 664.096,-498.256 654.627,-493.505 653.731,-500.448"/>
</a>
<a xlink:href=" javascript:onclick=function(e){var f=e.target.style;f.stroke=f.stroke==&#39;&#39;?&#39;red&#39;:&#39;&#39;}" xlink:title="rdf:type">
<text text-anchor="middle" x="550" y="-490" font-family="gothic" font-size="10.00">rdf:type</text>
</a>
</g>
<!-- literal_1688583814 -->
<g id="node22" class="node"><title>literal_1688583814</title>
<polygon fill="#ffe666" stroke="#ffe666" points="754,-252 682,-252 682,-216 754,-216 754,-252"/>
<text text-anchor="middle" x="718" y="-231.5" font-family="gothic" font-size="10.00">2373987</text>
</g>
<!-- http://glyconavi.org/glycobio/glycosample/GS_2_E2&#45;&gt;literal_1688583814 -->
<g id="edge44" class="edge"><title>http://glyconavi.org/glycobio/glycosample/GS_2_E2&#45;&gt;literal_1688583814</title>
<a xlink:href=" javascript:onclick=function(e){var f=e.target.style;f.stroke=f.stroke==&#39;&#39;?&#39;red&#39;:&#39;&#39;}" xlink:title="gs:pmid">
<path fill="none" stroke="black" d="M483.51,-277.567C492.159,-275.257 501.376,-272.927 510,-271 565.225,-258.662 629.431,-247.757 671.735,-241.039"/>
<polygon fill="black" stroke="black" points="672.402,-244.477 681.736,-239.464 671.313,-237.562 672.402,-244.477"/>
</a>
<a xlink:href=" javascript:onclick=function(e){var f=e.target.style;f.stroke=f.stroke==&#39;&#39;?&#39;red&#39;:&#39;&#39;}" xlink:title="gs:pmid">
<text text-anchor="middle" x="550" y="-275" font-family="gothic" font-size="10.00">gs:pmid</text>
</a>
</g>
<!-- http://identifiers.org/pubmed/2373987 -->
<g id="node23" class="node"><title>http://identifiers.org/pubmed/2373987</title>
<a xlink:href="http://www.kanzaki.com/works/2009/pub/graph-draw?u=http%3A%2F%2Fidentifiers.org%2Fpubmed%2F2373987" xlink:title="http://identifiers.org/pubmed/2373987">
<ellipse fill="#b7ffaf" stroke="#b7ffaf" cx="718" cy="-180" rx="109.074" ry="18"/>
<text text-anchor="middle" x="718" y="-177.5" font-family="gothic" font-size="10.00">http://identifiers.org/pubmed/2373987</text>
</a>
</g>
<!-- http://glyconavi.org/glycobio/glycosample/GS_2_E2&#45;&gt;http://identifiers.org/pubmed/2373987 -->
<g id="edge46" class="edge"><title>http://glyconavi.org/glycobio/glycosample/GS_2_E2&#45;&gt;http://identifiers.org/pubmed/2373987</title>
<a xlink:href=" javascript:onclick=function(e){var f=e.target.style;f.stroke=f.stroke==&#39;&#39;?&#39;red&#39;:&#39;&#39;}" xlink:title="dcterms:reference">
<path fill="none" stroke="black" d="M464.847,-271.39C476.864,-260.922 493.48,-247.776 510,-239 548.198,-218.707 594.153,-204.729 633.142,-195.492"/>
<polygon fill="black" stroke="black" points="633.936,-198.901 642.895,-193.245 632.364,-192.079 633.936,-198.901"/>
</a>
<a xlink:href=" javascript:onclick=function(e){var f=e.target.style;f.stroke=f.stroke==&#39;&#39;?&#39;red&#39;:&#39;&#39;}" xlink:title="dcterms:reference">
<text text-anchor="middle" x="550" y="-243" font-family="gothic" font-size="10.00">dcterms:reference</text>
</a>
</g>
<!-- literal_3392779965 -->
<g id="node24" class="node"><title>literal_3392779965</title>
<polygon fill="#ffe666" stroke="#ffe666" points="756,-144 680,-144 680,-108 756,-108 756,-144"/>
<text text-anchor="middle" x="718" y="-123.5" font-family="gothic" font-size="10.00">J. Endocrinol.</text>
</g>
<!-- http://glyconavi.org/glycobio/glycosample/GS_2_E2&#45;&gt;literal_3392779965 -->
<g id="edge48" class="edge"><title>http://glyconavi.org/glycobio/glycosample/GS_2_E2&#45;&gt;literal_3392779965</title>
<a xlink:href=" javascript:onclick=function(e){var f=e.target.style;f.stroke=f.stroke==&#39;&#39;?&#39;red&#39;:&#39;&#39;}" xlink:title="gs:journal_name">
<path fill="none" stroke="black" d="M454.663,-270.031C464.576,-248.729 483.742,-213.425 510,-192 556.12,-154.368 623.977,-138.068 669.517,-131.09"/>
<polygon fill="black" stroke="black" points="670.048,-134.55 679.448,-129.662 669.052,-127.622 670.048,-134.55"/>
</a>
<a xlink:href=" javascript:onclick=function(e){var f=e.target.style;f.stroke=f.stroke==&#39;&#39;?&#39;red&#39;:&#39;&#39;}" xlink:title="gs:journal_name">
<text text-anchor="middle" x="550" y="-196" font-family="gothic" font-size="10.00">gs:journal_name</text>
</a>
</g>
<!-- literal_1687983264 -->
<g id="node25" class="node"><title>literal_1687983264</title>
<polygon fill="#ffe666" stroke="#ffe666" points="792,-90 644,-90 644,-54 792,-54 792,-90"/>
<text text-anchor="middle" x="718" y="-69.5" font-family="gothic" font-size="10.00">Hiyama J._et_al_Materials &#160;...</text>
</g>
<!-- http://glyconavi.org/glycobio/glycosample/GS_2_E2&#45;&gt;literal_1687983264 -->
<g id="edge50" class="edge"><title>http://glyconavi.org/glycobio/glycosample/GS_2_E2&#45;&gt;literal_1687983264</title>
<a xlink:href=" javascript:onclick=function(e){var f=e.target.style;f.stroke=f.stroke==&#39;&#39;?&#39;red&#39;:&#39;&#39;}" xlink:title="gs:journal_site">
<path fill="none" stroke="black" d="M449.534,-269.88C454.919,-238.033 470.426,-171.821 510,-134 543.227,-102.245 592.009,-86.6755 633.981,-79.0763"/>
<polygon fill="black" stroke="black" points="634.654,-82.5123 643.933,-77.3981 633.49,-75.6097 634.654,-82.5123"/>
</a>
<a xlink:href=" javascript:onclick=function(e){var f=e.target.style;f.stroke=f.stroke==&#39;&#39;?&#39;red&#39;:&#39;&#39;}" xlink:title="gs:journal_site">
<text text-anchor="middle" x="550" y="-138" font-family="gothic" font-size="10.00">gs:journal_site</text>
</a>
</g>
<!-- literal_1699672371 -->
<g id="node26" class="node"><title>literal_1699672371</title>
<polygon fill="#ffe666" stroke="#ffe666" points="788,-36 648,-36 648,-1.77636e-14 788,-3.55271e-15 788,-36"/>
<text text-anchor="middle" x="718" y="-15.5" font-family="gothic" font-size="10.00">Purification of human pitu ...</text>
</g>
<!-- http://glyconavi.org/glycobio/glycosample/GS_2_E2&#45;&gt;literal_1699672371 -->
<g id="edge52" class="edge"><title>http://glyconavi.org/glycobio/glycosample/GS_2_E2&#45;&gt;literal_1699672371</title>
<a xlink:href=" javascript:onclick=function(e){var f=e.target.style;f.stroke=f.stroke==&#39;&#39;?&#39;red&#39;:&#39;&#39;}" xlink:title="gs:journal\n_title">
<path fill="none" stroke="black" d="M449.609,-269.852C456.934,-221.437 479.186,-90.92 510,-62 543.886,-30.1971 594.753,-19.0338 637.701,-15.9008"/>
<polygon fill="black" stroke="black" points="638.091,-19.3839 647.865,-15.2957 637.674,-12.3963 638.091,-19.3839"/>
</a>
<a xlink:href=" javascript:onclick=function(e){var f=e.target.style;f.stroke=f.stroke==&#39;&#39;?&#39;red&#39;:&#39;&#39;}" xlink:title="gs:journal\n_title">
<text text-anchor="middle" x="550" y="-79" font-family="gothic" font-size="10.00">gs:journal</text>
<text text-anchor="middle" x="550" y="-66" font-family="gothic" font-size="10.00">_title</text>
</a>
</g>
<!-- literal_2503387133 -->
<g id="node27" class="node"><title>literal_2503387133</title>
<polygon fill="#ffe666" stroke="#ffe666" points="754,-468 682,-468 682,-432 754,-432 754,-468"/>
<text text-anchor="middle" x="718" y="-447.5" font-family="gothic" font-size="10.00">Human</text>
</g>
<!-- http://glyconavi.org/glycobio/glycosample/GS_2_E2&#45;&gt;literal_2503387133 -->
<g id="edge54" class="edge"><title>http://glyconavi.org/glycobio/glycosample/GS_2_E2&#45;&gt;literal_2503387133</title>
<a xlink:href=" javascript:onclick=function(e){var f=e.target.style;f.stroke=f.stroke==&#39;&#39;?&#39;red&#39;:&#39;&#39;}" xlink:title="gs:organism">
<path fill="none" stroke="black" d="M451.279,-306.286C458.54,-333.044 475.923,-382.453 510,-408 557.036,-443.262 626.249,-450.883 671.717,-451.621"/>
<polygon fill="black" stroke="black" points="671.869,-455.122 681.889,-451.678 671.908,-448.122 671.869,-455.122"/>
</a>
<a xlink:href=" javascript:onclick=function(e){var f=e.target.style;f.stroke=f.stroke==&#39;&#39;?&#39;red&#39;:&#39;&#39;}" xlink:title="gs:organism">
<text text-anchor="middle" x="550" y="-446" font-family="gothic" font-size="10.00">gs:organism</text>
</a>
</g>
<!-- literal_364375003 -->
<g id="node28" class="node"><title>literal_364375003</title>
<polygon fill="#ffe666" stroke="#ffe666" points="758,-414 678,-414 678,-378 758,-378 758,-414"/>
<text text-anchor="middle" x="718" y="-393.5" font-family="gothic" font-size="10.00">Homo sapiens</text>
</g>
<!-- http://glyconavi.org/glycobio/glycosample/GS_2_E2&#45;&gt;literal_364375003 -->
<g id="edge56" class="edge"><title>http://glyconavi.org/glycobio/glycosample/GS_2_E2&#45;&gt;literal_364375003</title>
<a xlink:href=" javascript:onclick=function(e){var f=e.target.style;f.stroke=f.stroke==&#39;&#39;?&#39;red&#39;:&#39;&#39;}" xlink:title="gs:taxonomy\n_name">
<path fill="none" stroke="black" d="M460.055,-305.436C471.619,-319.617 489.772,-339.014 510,-350 559.495,-376.88 623.711,-388.058 667.618,-392.703"/>
<polygon fill="black" stroke="black" points="667.474,-396.206 677.768,-393.699 668.158,-389.239 667.474,-396.206"/>
</a>
<a xlink:href=" javascript:onclick=function(e){var f=e.target.style;f.stroke=f.stroke==&#39;&#39;?&#39;red&#39;:&#39;&#39;}" xlink:title="gs:taxonomy\n_name">
<text text-anchor="middle" x="550" y="-395" font-family="gothic" font-size="10.00">gs:taxonomy</text>
<text text-anchor="middle" x="550" y="-382" font-family="gothic" font-size="10.00">_name</text>
</a>
</g>
<!-- literal_1677754638 -->
<g id="node29" class="node"><title>literal_1677754638</title>
<polygon fill="#ffe666" stroke="#ffe666" points="754,-360 682,-360 682,-324 754,-324 754,-360"/>
<text text-anchor="middle" x="718" y="-339.5" font-family="gothic" font-size="10.00">9606</text>
</g>
<!-- http://glyconavi.org/glycobio/glycosample/GS_2_E2&#45;&gt;literal_1677754638 -->
<g id="edge58" class="edge"><title>http://glyconavi.org/glycobio/glycosample/GS_2_E2&#45;&gt;literal_1677754638</title>
<a xlink:href=" javascript:onclick=function(e){var f=e.target.style;f.stroke=f.stroke==&#39;&#39;?&#39;red&#39;:&#39;&#39;}" xlink:title="gs:taxonomy_id">
<path fill="none" stroke="black" d="M472.908,-302.71C484.003,-308.376 497.308,-314.355 510,-318 564.226,-333.572 629.153,-339.084 671.874,-341.01"/>
<polygon fill="black" stroke="black" points="671.838,-344.512 681.971,-341.417 672.12,-337.517 671.838,-344.512"/>
</a>
<a xlink:href=" javascript:onclick=function(e){var f=e.target.style;f.stroke=f.stroke==&#39;&#39;?&#39;red&#39;:&#39;&#39;}" xlink:title="gs:taxonomy_id">
<text text-anchor="middle" x="550" y="-337" font-family="gothic" font-size="10.00">gs:taxonomy_id</text>
</a>
</g>
<!-- literal_952977709 -->
<g id="node30" class="node"><title>literal_952977709</title>
<polygon fill="#ffe666" stroke="#ffe666" points="783,-306 653,-306 653,-270 783,-270 783,-306"/>
<text text-anchor="middle" x="718" y="-285.5" font-family="gothic" font-size="10.00">national pituitary collect ...</text>
</g>
<!-- http://glyconavi.org/glycobio/glycosample/GS_2_E2&#45;&gt;literal_952977709 -->
<g id="edge60" class="edge"><title>http://glyconavi.org/glycobio/glycosample/GS_2_E2&#45;&gt;literal_952977709</title>
<a xlink:href=" javascript:onclick=function(e){var f=e.target.style;f.stroke=f.stroke==&#39;&#39;?&#39;red&#39;:&#39;&#39;}" xlink:title="gs:biomaterial\n_provider">
<path fill="none" stroke="black" d="M491.75,-288C532.593,-288 593.793,-288 642.248,-288"/>
<polygon fill="black" stroke="black" points="642.382,-291.5 652.382,-288 642.382,-284.5 642.382,-291.5"/>
</a>
<a xlink:href=" javascript:onclick=function(e){var f=e.target.style;f.stroke=f.stroke==&#39;&#39;?&#39;red&#39;:&#39;&#39;}" xlink:title="gs:biomaterial\n_provider">
<text text-anchor="middle" x="550" y="-305" font-family="gothic" font-size="10.00">gs:biomaterial</text>
<text text-anchor="middle" x="550" y="-292" font-family="gothic" font-size="10.00">_provider</text>
</a>
</g>
<!-- literal_2150035868 -->
<g id="node31" class="node"><title>literal_2150035868</title>
<polygon fill="#ffe666" stroke="#ffe666" points="1038,-630 966,-630 966,-594 1038,-594 1038,-630"/>
<text text-anchor="middle" x="1002" y="-609.5" font-family="gothic" font-size="10.00">1991473</text>
</g>
<!-- http://identifiers.org/pubmed/1991473&#45;&gt;literal_2150035868 -->
<g id="edge62" class="edge"><title>http://identifiers.org/pubmed/1991473&#45;&gt;literal_2150035868</title>
<a xlink:href=" javascript:onclick=function(e){var f=e.target.style;f.stroke=f.stroke==&#39;&#39;?&#39;red&#39;:&#39;&#39;}" xlink:title="dcterms:identifier">
<path fill="none" stroke="black" d="M827.802,-612C872.219,-612 921.073,-612 955.711,-612"/>
<polygon fill="black" stroke="black" points="955.984,-615.5 965.984,-612 955.984,-608.5 955.984,-615.5"/>
</a>
<a xlink:href=" javascript:onclick=function(e){var f=e.target.style;f.stroke=f.stroke==&#39;&#39;?&#39;red&#39;:&#39;&#39;}" xlink:title="dcterms:identifier">
<text text-anchor="middle" x="884" y="-616" font-family="gothic" font-size="10.00">dcterms:identifier</text>
</a>
</g>
<!-- http://purl.org/spar/fabio/JournalArticle -->
<g id="node32" class="node"><title>http://purl.org/spar/fabio/JournalArticle</title>
<a xlink:href="http://www.kanzaki.com/works/2009/pub/graph-draw?u=http%3A%2F%2Fpurl.org%2Fspar%2Ffabio%2FJournalArticle" xlink:title="fabio:JournalArticle">
<ellipse fill="#b7ffaf" stroke="#b7ffaf" cx="1002" cy="-328" rx="61.0582" ry="18"/>
<text text-anchor="middle" x="1002" y="-325.5" font-family="gothic" font-size="10.00">fabio:JournalArticle</text>
</a>
</g>
<!-- http://identifiers.org/pubmed/1991473&#45;&gt;http://purl.org/spar/fabio/JournalArticle -->
<g id="edge64" class="edge"><title>http://identifiers.org/pubmed/1991473&#45;&gt;http://purl.org/spar/fabio/JournalArticle</title>
<a xlink:href=" javascript:onclick=function(e){var f=e.target.style;f.stroke=f.stroke==&#39;&#39;?&#39;red&#39;:&#39;&#39;}" xlink:title="rdf:type">
<path fill="none" stroke="black" d="M798.249,-599.732C808.8,-596.037 819.043,-591.236 828,-585 913.787,-525.275 969.477,-408.484 991.42,-355.414"/>
<polygon fill="black" stroke="black" points="994.732,-356.562 995.242,-345.979 988.244,-353.934 994.732,-356.562"/>
</a>
<a xlink:href=" javascript:onclick=function(e){var f=e.target.style;f.stroke=f.stroke==&#39;&#39;?&#39;red&#39;:&#39;&#39;}" xlink:title="rdf:type">
<text text-anchor="middle" x="884" y="-573" font-family="gothic" font-size="10.00">rdf:type</text>
</a>
</g>
<!-- http://identifiers.org/pubmed/2373987&#45;&gt;http://purl.org/spar/fabio/JournalArticle -->
<g id="edge68" class="edge"><title>http://identifiers.org/pubmed/2373987&#45;&gt;http://purl.org/spar/fabio/JournalArticle</title>
<a xlink:href=" javascript:onclick=function(e){var f=e.target.style;f.stroke=f.stroke==&#39;&#39;?&#39;red&#39;:&#39;&#39;}" xlink:title="rdf:type">
<path fill="none" stroke="black" d="M789.997,-193.634C802.933,-197.21 816.082,-201.618 828,-207 884.573,-232.547 942.147,-276.971 974.835,-304.297"/>
<polygon fill="black" stroke="black" points="972.696,-307.073 982.593,-310.854 977.215,-301.726 972.696,-307.073"/>
</a>
<a xlink:href=" javascript:onclick=function(e){var f=e.target.style;f.stroke=f.stroke==&#39;&#39;?&#39;red&#39;:&#39;&#39;}" xlink:title="rdf:type">
<text text-anchor="middle" x="884" y="-268" font-family="gothic" font-size="10.00">rdf:type</text>
</a>
</g>
<!-- literal_3824551228 -->
<g id="node33" class="node"><title>literal_3824551228</title>
<polygon fill="#ffe666" stroke="#ffe666" points="1038,-198 966,-198 966,-162 1038,-162 1038,-198"/>
<text text-anchor="middle" x="1002" y="-177.5" font-family="gothic" font-size="10.00">2373987</text>
</g>
<!-- http://identifiers.org/pubmed/2373987&#45;&gt;literal_3824551228 -->
<g id="edge66" class="edge"><title>http://identifiers.org/pubmed/2373987&#45;&gt;literal_3824551228</title>
<a xlink:href=" javascript:onclick=function(e){var f=e.target.style;f.stroke=f.stroke==&#39;&#39;?&#39;red&#39;:&#39;&#39;}" xlink:title="dcterms:identifier">
<path fill="none" stroke="black" d="M827.802,-180C872.219,-180 921.073,-180 955.711,-180"/>
<polygon fill="black" stroke="black" points="955.984,-183.5 965.984,-180 955.984,-176.5 955.984,-183.5"/>
</a>
<a xlink:href=" javascript:onclick=function(e){var f=e.target.style;f.stroke=f.stroke==&#39;&#39;?&#39;red&#39;:&#39;&#39;}" xlink:title="dcterms:identifier">
<text text-anchor="middle" x="884" y="-184" font-family="gothic" font-size="10.00">dcterms:identifier</text>
</a>
</g>
</g>
</svg>
